<svg width="816" height="456" viewBox="0 0 816 456" fill="none" xmlns="http://www.w3.org/2000/svg">
<rect x="228.914" y="292.573" width="146.272" height="72.8933" rx="6" fill="#E3F5FC" stroke="#062540" stroke-width="4" stroke-linecap="round"/>
<path d="M273.811 322.573V310.937H277.959C278.864 310.937 279.614 311.102 280.209 311.431C280.804 311.761 281.249 312.211 281.544 312.783C281.84 313.352 281.987 313.992 281.987 314.704C281.987 315.42 281.838 316.064 281.539 316.636C281.243 317.204 280.796 317.655 280.198 317.988C279.603 318.318 278.855 318.482 277.953 318.482H275.101V316.994H277.794C278.366 316.994 278.83 316.895 279.186 316.698C279.542 316.497 279.804 316.225 279.97 315.88C280.137 315.535 280.22 315.143 280.22 314.704C280.22 314.265 280.137 313.874 279.97 313.533C279.804 313.193 279.54 312.926 279.181 312.732C278.825 312.539 278.355 312.443 277.772 312.443H275.567V322.573H273.811ZM283.733 322.573V313.846H285.375V315.232H285.466C285.625 314.763 285.906 314.393 286.307 314.124C286.712 313.852 287.171 313.715 287.682 313.715C287.788 313.715 287.913 313.719 288.057 313.727C288.205 313.734 288.32 313.744 288.404 313.755V315.38C288.336 315.361 288.214 315.34 288.04 315.318C287.866 315.291 287.692 315.278 287.517 315.278C287.116 315.278 286.758 315.363 286.444 315.533C286.133 315.7 285.887 315.933 285.705 316.232C285.523 316.528 285.432 316.865 285.432 317.244V322.573H283.733ZM293.062 322.749C292.243 322.749 291.529 322.562 290.92 322.187C290.31 321.812 289.836 321.287 289.499 320.613C289.162 319.939 288.993 319.151 288.993 318.249C288.993 317.344 289.162 316.552 289.499 315.874C289.836 315.196 290.31 314.67 290.92 314.295C291.529 313.92 292.243 313.732 293.062 313.732C293.88 313.732 294.594 313.92 295.204 314.295C295.813 314.67 296.287 315.196 296.624 315.874C296.961 316.552 297.13 317.344 297.13 318.249C297.13 319.151 296.961 319.939 296.624 320.613C296.287 321.287 295.813 321.812 295.204 322.187C294.594 322.562 293.88 322.749 293.062 322.749ZM293.067 321.323C293.598 321.323 294.037 321.183 294.385 320.903C294.734 320.622 294.992 320.249 295.158 319.783C295.329 319.318 295.414 318.804 295.414 318.244C295.414 317.687 295.329 317.176 295.158 316.71C294.992 316.24 294.734 315.863 294.385 315.579C294.037 315.295 293.598 315.153 293.067 315.153C292.533 315.153 292.09 315.295 291.738 315.579C291.389 315.863 291.13 316.24 290.959 316.71C290.793 317.176 290.709 317.687 290.709 318.244C290.709 318.804 290.793 319.318 290.959 319.783C291.13 320.249 291.389 320.622 291.738 320.903C292.09 321.183 292.533 321.323 293.067 321.323ZM302.117 322.744C301.413 322.744 300.784 322.564 300.231 322.204C299.682 321.84 299.25 321.323 298.935 320.653C298.625 319.979 298.469 319.17 298.469 318.227C298.469 317.283 298.627 316.477 298.941 315.806C299.259 315.136 299.695 314.622 300.248 314.266C300.801 313.91 301.428 313.732 302.128 313.732C302.67 313.732 303.106 313.823 303.435 314.005C303.769 314.183 304.026 314.391 304.208 314.63C304.394 314.869 304.538 315.079 304.64 315.261H304.742V310.937H306.441V322.573H304.782V321.215H304.64C304.538 321.401 304.39 321.613 304.197 321.852C304.007 322.09 303.746 322.299 303.413 322.477C303.079 322.655 302.647 322.744 302.117 322.744ZM302.492 321.295C302.981 321.295 303.394 321.166 303.731 320.908C304.072 320.647 304.329 320.285 304.503 319.823C304.682 319.361 304.771 318.823 304.771 318.21C304.771 317.604 304.683 317.073 304.509 316.619C304.335 316.164 304.079 315.81 303.742 315.556C303.405 315.302 302.988 315.176 302.492 315.176C301.981 315.176 301.555 315.308 301.214 315.573C300.873 315.838 300.615 316.2 300.441 316.658C300.271 317.117 300.185 317.634 300.185 318.21C300.185 318.793 300.272 319.318 300.447 319.783C300.621 320.249 300.878 320.619 301.219 320.891C301.564 321.16 301.988 321.295 302.492 321.295ZM314.218 318.954V313.846H315.923V322.573H314.252V321.062H314.161C313.961 321.528 313.639 321.916 313.195 322.227C312.756 322.533 312.209 322.687 311.553 322.687C310.993 322.687 310.497 322.564 310.065 322.318C309.637 322.068 309.3 321.698 309.053 321.21C308.811 320.721 308.69 320.117 308.69 319.397V313.846H310.389V319.193C310.389 319.787 310.553 320.261 310.883 320.613C311.212 320.965 311.64 321.141 312.167 321.141C312.485 321.141 312.801 321.062 313.116 320.903C313.434 320.744 313.697 320.503 313.906 320.181C314.118 319.859 314.222 319.45 314.218 318.954ZM321.705 322.749C320.861 322.749 320.133 322.558 319.524 322.176C318.918 321.789 318.452 321.257 318.126 320.579C317.8 319.901 317.637 319.124 317.637 318.249C317.637 317.363 317.804 316.581 318.137 315.903C318.471 315.221 318.94 314.689 319.546 314.306C320.152 313.924 320.866 313.732 321.688 313.732C322.351 313.732 322.942 313.855 323.461 314.102C323.98 314.344 324.399 314.685 324.717 315.124C325.039 315.564 325.23 316.077 325.291 316.664H323.637C323.546 316.255 323.338 315.903 323.012 315.607C322.69 315.312 322.258 315.164 321.717 315.164C321.243 315.164 320.829 315.289 320.473 315.539C320.12 315.785 319.846 316.138 319.649 316.596C319.452 317.051 319.353 317.588 319.353 318.21C319.353 318.846 319.45 319.395 319.643 319.857C319.836 320.319 320.109 320.677 320.461 320.931C320.817 321.185 321.236 321.312 321.717 321.312C322.039 321.312 322.33 321.253 322.592 321.136C322.857 321.015 323.079 320.842 323.257 320.619C323.438 320.395 323.565 320.126 323.637 319.812H325.291C325.23 320.376 325.046 320.88 324.74 321.323C324.433 321.766 324.022 322.115 323.507 322.369C322.995 322.622 322.395 322.749 321.705 322.749ZM331.005 313.846V315.21H326.238V313.846H331.005ZM327.517 311.755H329.216V320.011C329.216 320.34 329.265 320.588 329.363 320.755C329.462 320.918 329.589 321.03 329.744 321.09C329.903 321.147 330.075 321.176 330.261 321.176C330.397 321.176 330.517 321.166 330.619 321.147C330.721 321.128 330.801 321.113 330.858 321.102L331.164 322.505C331.066 322.543 330.926 322.581 330.744 322.619C330.562 322.66 330.335 322.683 330.062 322.687C329.615 322.694 329.198 322.615 328.812 322.448C328.426 322.282 328.113 322.024 327.875 321.676C327.636 321.327 327.517 320.89 327.517 320.363V311.755ZM271.918 338.721H270.145C270.077 338.342 269.95 338.009 269.764 337.721C269.579 337.433 269.351 337.189 269.082 336.988C268.814 336.787 268.512 336.636 268.179 336.533C267.85 336.431 267.499 336.38 267.128 336.38C266.457 336.38 265.857 336.549 265.327 336.886C264.8 337.223 264.384 337.717 264.077 338.369C263.774 339.02 263.622 339.816 263.622 340.755C263.622 341.702 263.774 342.501 264.077 343.153C264.384 343.804 264.802 344.297 265.332 344.63C265.863 344.963 266.459 345.13 267.122 345.13C267.49 345.13 267.838 345.081 268.168 344.982C268.501 344.88 268.802 344.73 269.071 344.533C269.34 344.336 269.567 344.096 269.753 343.812C269.942 343.524 270.073 343.194 270.145 342.823L271.918 342.829C271.823 343.401 271.639 343.927 271.367 344.408C271.098 344.886 270.751 345.299 270.327 345.647C269.906 345.992 269.425 346.259 268.884 346.448C268.342 346.638 267.751 346.732 267.111 346.732C266.103 346.732 265.206 346.494 264.418 346.016C263.63 345.535 263.009 344.848 262.554 343.954C262.103 343.06 261.878 341.994 261.878 340.755C261.878 339.513 262.105 338.446 262.56 337.556C263.014 336.662 263.636 335.977 264.423 335.499C265.211 335.018 266.107 334.778 267.111 334.778C267.728 334.778 268.304 334.867 268.838 335.045C269.376 335.219 269.859 335.477 270.287 335.818C270.715 336.155 271.069 336.568 271.35 337.056C271.63 337.541 271.819 338.096 271.918 338.721ZM276.246 346.766C275.693 346.766 275.193 346.664 274.746 346.46C274.299 346.251 273.945 345.95 273.683 345.556C273.426 345.162 273.297 344.679 273.297 344.107C273.297 343.615 273.392 343.21 273.581 342.891C273.771 342.573 274.026 342.321 274.348 342.136C274.67 341.95 275.03 341.81 275.428 341.715C275.826 341.621 276.231 341.549 276.644 341.499C277.166 341.439 277.591 341.39 277.916 341.352C278.242 341.31 278.479 341.244 278.627 341.153C278.774 341.062 278.848 340.914 278.848 340.71V340.67C278.848 340.174 278.708 339.789 278.428 339.516C278.151 339.244 277.738 339.107 277.189 339.107C276.617 339.107 276.166 339.234 275.837 339.488C275.511 339.738 275.286 340.016 275.161 340.323L273.564 339.96C273.754 339.429 274.03 339.001 274.394 338.676C274.761 338.346 275.183 338.107 275.661 337.96C276.138 337.808 276.64 337.732 277.166 337.732C277.515 337.732 277.884 337.774 278.274 337.857C278.668 337.937 279.036 338.085 279.377 338.301C279.721 338.516 280.004 338.825 280.223 339.227C280.443 339.624 280.553 340.141 280.553 340.778V346.573H278.894V345.38H278.826C278.716 345.6 278.551 345.816 278.331 346.028C278.112 346.24 277.829 346.416 277.485 346.556C277.14 346.696 276.727 346.766 276.246 346.766ZM276.615 345.403C277.085 345.403 277.487 345.31 277.82 345.124C278.157 344.939 278.413 344.696 278.587 344.397C278.765 344.094 278.854 343.77 278.854 343.426V342.301C278.793 342.361 278.676 342.418 278.502 342.471C278.331 342.52 278.136 342.564 277.916 342.602C277.697 342.636 277.483 342.668 277.274 342.698C277.066 342.725 276.892 342.747 276.752 342.766C276.422 342.808 276.121 342.878 275.848 342.977C275.579 343.075 275.363 343.217 275.201 343.403C275.041 343.585 274.962 343.827 274.962 344.13C274.962 344.551 275.117 344.869 275.428 345.085C275.738 345.297 276.134 345.403 276.615 345.403ZM286.713 337.846V339.21H281.946V337.846H286.713ZM283.225 335.755H284.924V344.011C284.924 344.34 284.973 344.588 285.071 344.755C285.17 344.918 285.297 345.03 285.452 345.09C285.611 345.147 285.784 345.176 285.969 345.176C286.105 345.176 286.225 345.166 286.327 345.147C286.429 345.128 286.509 345.113 286.566 345.102L286.873 346.505C286.774 346.543 286.634 346.581 286.452 346.619C286.27 346.66 286.043 346.683 285.77 346.687C285.323 346.694 284.907 346.615 284.52 346.448C284.134 346.282 283.821 346.024 283.583 345.676C283.344 345.327 283.225 344.89 283.225 344.363V335.755ZM292.084 346.749C291.224 346.749 290.484 346.566 289.863 346.198C289.245 345.827 288.768 345.306 288.431 344.636C288.098 343.961 287.931 343.172 287.931 342.266C287.931 341.372 288.098 340.585 288.431 339.903C288.768 339.221 289.238 338.689 289.84 338.306C290.446 337.924 291.154 337.732 291.965 337.732C292.457 337.732 292.935 337.814 293.397 337.977C293.859 338.14 294.274 338.395 294.641 338.744C295.009 339.092 295.298 339.545 295.51 340.102C295.723 340.655 295.829 341.327 295.829 342.119V342.721H288.891V341.448H294.164C294.164 341.001 294.073 340.605 293.891 340.261C293.709 339.912 293.454 339.638 293.124 339.437C292.798 339.236 292.416 339.136 291.976 339.136C291.499 339.136 291.082 339.253 290.726 339.488C290.374 339.719 290.101 340.022 289.908 340.397C289.719 340.768 289.624 341.172 289.624 341.607V342.602C289.624 343.185 289.726 343.681 289.931 344.09C290.139 344.499 290.429 344.812 290.8 345.028C291.171 345.24 291.605 345.346 292.101 345.346C292.423 345.346 292.717 345.301 292.982 345.21C293.247 345.115 293.476 344.975 293.67 344.789C293.863 344.604 294.01 344.374 294.113 344.102L295.721 344.391C295.592 344.865 295.361 345.28 295.027 345.636C294.698 345.988 294.283 346.263 293.783 346.46C293.287 346.653 292.721 346.749 292.084 346.749ZM301.197 350.028C300.503 350.028 299.907 349.937 299.407 349.755C298.911 349.573 298.505 349.333 298.191 349.033C297.877 348.734 297.642 348.407 297.486 348.051L298.947 347.448C299.049 347.615 299.185 347.791 299.356 347.977C299.53 348.166 299.765 348.327 300.06 348.46C300.36 348.592 300.744 348.658 301.214 348.658C301.858 348.658 302.39 348.501 302.81 348.187C303.231 347.876 303.441 347.38 303.441 346.698V344.982H303.333C303.231 345.168 303.083 345.374 302.89 345.602C302.7 345.829 302.439 346.026 302.106 346.193C301.772 346.359 301.339 346.443 300.805 346.443C300.115 346.443 299.494 346.282 298.941 345.96C298.392 345.634 297.956 345.155 297.634 344.522C297.316 343.886 297.157 343.104 297.157 342.176C297.157 341.247 297.314 340.452 297.628 339.789C297.947 339.126 298.382 338.619 298.935 338.266C299.488 337.91 300.115 337.732 300.816 337.732C301.358 337.732 301.795 337.823 302.128 338.005C302.462 338.183 302.721 338.391 302.907 338.63C303.096 338.869 303.242 339.079 303.344 339.261H303.469V337.846H305.134V346.766C305.134 347.516 304.96 348.132 304.611 348.613C304.263 349.094 303.791 349.45 303.197 349.681C302.606 349.912 301.939 350.028 301.197 350.028ZM301.18 345.033C301.668 345.033 302.081 344.92 302.418 344.693C302.759 344.461 303.017 344.132 303.191 343.704C303.369 343.272 303.458 342.755 303.458 342.153C303.458 341.566 303.371 341.049 303.197 340.602C303.022 340.155 302.767 339.806 302.43 339.556C302.093 339.302 301.676 339.176 301.18 339.176C300.668 339.176 300.242 339.308 299.901 339.573C299.56 339.835 299.303 340.191 299.128 340.641C298.958 341.092 298.873 341.596 298.873 342.153C298.873 342.725 298.96 343.227 299.134 343.658C299.308 344.09 299.566 344.427 299.907 344.67C300.252 344.912 300.676 345.033 301.18 345.033ZM310.913 346.749C310.095 346.749 309.381 346.562 308.771 346.187C308.161 345.812 307.687 345.287 307.35 344.613C307.013 343.939 306.845 343.151 306.845 342.249C306.845 341.344 307.013 340.552 307.35 339.874C307.687 339.196 308.161 338.67 308.771 338.295C309.381 337.92 310.095 337.732 310.913 337.732C311.731 337.732 312.445 337.92 313.055 338.295C313.665 338.67 314.138 339.196 314.475 339.874C314.812 340.552 314.981 341.344 314.981 342.249C314.981 343.151 314.812 343.939 314.475 344.613C314.138 345.287 313.665 345.812 313.055 346.187C312.445 346.562 311.731 346.749 310.913 346.749ZM310.918 345.323C311.449 345.323 311.888 345.183 312.237 344.903C312.585 344.622 312.843 344.249 313.009 343.783C313.18 343.318 313.265 342.804 313.265 342.244C313.265 341.687 313.18 341.176 313.009 340.71C312.843 340.24 312.585 339.863 312.237 339.579C311.888 339.295 311.449 339.153 310.918 339.153C310.384 339.153 309.941 339.295 309.589 339.579C309.24 339.863 308.981 340.24 308.81 340.71C308.644 341.176 308.56 341.687 308.56 342.244C308.56 342.804 308.644 343.318 308.81 343.783C308.981 344.249 309.24 344.622 309.589 344.903C309.941 345.183 310.384 345.323 310.918 345.323ZM316.701 346.573V337.846H318.343V339.232H318.434C318.593 338.763 318.874 338.393 319.275 338.124C319.68 337.852 320.139 337.715 320.65 337.715C320.756 337.715 320.881 337.719 321.025 337.727C321.173 337.734 321.288 337.744 321.372 337.755V339.38C321.303 339.361 321.182 339.34 321.008 339.318C320.834 339.291 320.66 339.278 320.485 339.278C320.084 339.278 319.726 339.363 319.411 339.533C319.101 339.7 318.855 339.933 318.673 340.232C318.491 340.528 318.4 340.865 318.4 341.244V346.573H316.701ZM322.666 346.573V337.846H324.365V346.573H322.666ZM323.524 336.499C323.228 336.499 322.975 336.401 322.762 336.204C322.554 336.003 322.45 335.765 322.45 335.488C322.45 335.208 322.554 334.969 322.762 334.772C322.975 334.571 323.228 334.471 323.524 334.471C323.819 334.471 324.071 334.571 324.279 334.772C324.492 334.969 324.598 335.208 324.598 335.488C324.598 335.765 324.492 336.003 324.279 336.204C324.071 336.401 323.819 336.499 323.524 336.499ZM330.236 346.749C329.376 346.749 328.635 346.566 328.014 346.198C327.397 345.827 326.919 345.306 326.582 344.636C326.249 343.961 326.082 343.172 326.082 342.266C326.082 341.372 326.249 340.585 326.582 339.903C326.919 339.221 327.389 338.689 327.991 338.306C328.597 337.924 329.306 337.732 330.116 337.732C330.609 337.732 331.086 337.814 331.548 337.977C332.01 338.14 332.425 338.395 332.792 338.744C333.16 339.092 333.45 339.545 333.662 340.102C333.874 340.655 333.98 341.327 333.98 342.119V342.721H327.042V341.448H332.315C332.315 341.001 332.224 340.605 332.042 340.261C331.861 339.912 331.605 339.638 331.275 339.437C330.95 339.236 330.567 339.136 330.128 339.136C329.65 339.136 329.234 339.253 328.878 339.488C328.525 339.719 328.253 340.022 328.059 340.397C327.87 340.768 327.775 341.172 327.775 341.607V342.602C327.775 343.185 327.878 343.681 328.082 344.09C328.29 344.499 328.58 344.812 328.951 345.028C329.323 345.24 329.756 345.346 330.253 345.346C330.575 345.346 330.868 345.301 331.133 345.21C331.398 345.115 331.628 344.975 331.821 344.789C332.014 344.604 332.162 344.374 332.264 344.102L333.872 344.391C333.743 344.865 333.512 345.28 333.179 345.636C332.849 345.988 332.434 346.263 331.934 346.46C331.438 346.653 330.872 346.749 330.236 346.749ZM342.229 339.977L340.689 340.249C340.624 340.052 340.522 339.865 340.382 339.687C340.246 339.509 340.06 339.363 339.825 339.249C339.59 339.136 339.297 339.079 338.945 339.079C338.463 339.079 338.062 339.187 337.74 339.403C337.418 339.615 337.257 339.89 337.257 340.227C337.257 340.518 337.365 340.753 337.581 340.931C337.797 341.109 338.145 341.255 338.626 341.369L340.013 341.687C340.816 341.872 341.414 342.158 341.808 342.545C342.202 342.931 342.399 343.433 342.399 344.051C342.399 344.573 342.248 345.039 341.945 345.448C341.645 345.854 341.227 346.172 340.689 346.403C340.155 346.634 339.535 346.749 338.831 346.749C337.854 346.749 337.056 346.541 336.439 346.124C335.821 345.704 335.443 345.107 335.302 344.335L336.945 344.085C337.047 344.513 337.257 344.836 337.575 345.056C337.893 345.272 338.308 345.38 338.82 345.38C339.376 345.38 339.821 345.265 340.155 345.033C340.488 344.799 340.655 344.513 340.655 344.176C340.655 343.903 340.552 343.674 340.348 343.488C340.147 343.302 339.838 343.162 339.422 343.068L337.945 342.744C337.13 342.558 336.528 342.263 336.138 341.857C335.751 341.452 335.558 340.939 335.558 340.318C335.558 339.802 335.702 339.352 335.99 338.965C336.278 338.579 336.676 338.278 337.183 338.062C337.691 337.842 338.272 337.732 338.927 337.732C339.871 337.732 340.613 337.937 341.155 338.346C341.696 338.751 342.054 339.295 342.229 339.977Z" fill="#062540"/>
<rect x="321.996" y="143.534" width="146.272" height="72.8933" rx="6" fill="#E3F5FC" stroke="#062540" stroke-width="4" stroke-linecap="round"/>
<path d="M355.212 185.534V173.897H359.36C360.261 173.897 361.009 174.053 361.604 174.363C362.202 174.674 362.649 175.104 362.945 175.653C363.24 176.198 363.388 176.829 363.388 177.545C363.388 178.257 363.238 178.884 362.939 179.426C362.644 179.964 362.197 180.382 361.598 180.681C361.004 180.981 360.255 181.13 359.354 181.13H356.212V179.619H359.195C359.763 179.619 360.225 179.537 360.581 179.375C360.941 179.212 361.204 178.975 361.371 178.664C361.538 178.354 361.621 177.981 361.621 177.545C361.621 177.106 361.536 176.725 361.365 176.403C361.199 176.081 360.935 175.835 360.576 175.664C360.219 175.49 359.752 175.403 359.172 175.403H356.968V185.534H355.212ZM360.956 180.284L363.831 185.534H361.831L359.013 180.284H360.956ZM368.864 185.71C368.004 185.71 367.264 185.526 366.642 185.159C366.025 184.787 365.548 184.267 365.211 183.596C364.877 182.922 364.711 182.132 364.711 181.227C364.711 180.333 364.877 179.545 365.211 178.863C365.548 178.181 366.017 177.649 366.62 177.267C367.226 176.884 367.934 176.693 368.745 176.693C369.237 176.693 369.714 176.774 370.177 176.937C370.639 177.1 371.053 177.356 371.421 177.704C371.788 178.053 372.078 178.505 372.29 179.062C372.502 179.615 372.608 180.287 372.608 181.079V181.681H365.671V180.409H370.944C370.944 179.962 370.853 179.566 370.671 179.221C370.489 178.873 370.233 178.598 369.904 178.397C369.578 178.197 369.195 178.096 368.756 178.096C368.279 178.096 367.862 178.214 367.506 178.448C367.154 178.68 366.881 178.983 366.688 179.358C366.499 179.729 366.404 180.132 366.404 180.568V181.562C366.404 182.145 366.506 182.642 366.711 183.051C366.919 183.46 367.209 183.772 367.58 183.988C367.951 184.2 368.385 184.306 368.881 184.306C369.203 184.306 369.497 184.261 369.762 184.17C370.027 184.075 370.256 183.935 370.449 183.75C370.642 183.564 370.79 183.335 370.892 183.062L372.5 183.352C372.372 183.825 372.141 184.24 371.807 184.596C371.478 184.948 371.063 185.223 370.563 185.42C370.067 185.613 369.5 185.71 368.864 185.71ZM380.857 178.937L379.317 179.21C379.253 179.013 379.151 178.825 379.01 178.647C378.874 178.469 378.689 178.323 378.454 178.21C378.219 178.096 377.925 178.039 377.573 178.039C377.092 178.039 376.69 178.147 376.368 178.363C376.046 178.575 375.885 178.85 375.885 179.187C375.885 179.479 375.993 179.714 376.209 179.892C376.425 180.07 376.774 180.216 377.255 180.329L378.641 180.647C379.444 180.833 380.043 181.119 380.437 181.505C380.831 181.892 381.028 182.394 381.028 183.011C381.028 183.534 380.876 184 380.573 184.409C380.274 184.814 379.855 185.132 379.317 185.363C378.783 185.594 378.164 185.71 377.459 185.71C376.482 185.71 375.685 185.501 375.067 185.085C374.45 184.664 374.071 184.068 373.931 183.295L375.573 183.045C375.675 183.473 375.885 183.797 376.204 184.017C376.522 184.233 376.937 184.341 377.448 184.341C378.005 184.341 378.45 184.225 378.783 183.994C379.117 183.759 379.283 183.473 379.283 183.136C379.283 182.863 379.181 182.634 378.976 182.448C378.776 182.263 378.467 182.123 378.05 182.028L376.573 181.704C375.759 181.519 375.156 181.223 374.766 180.818C374.38 180.412 374.187 179.899 374.187 179.278C374.187 178.763 374.331 178.312 374.618 177.926C374.906 177.539 375.304 177.238 375.812 177.022C376.319 176.803 376.901 176.693 377.556 176.693C378.499 176.693 379.242 176.897 379.783 177.306C380.325 177.712 380.683 178.255 380.857 178.937ZM382.719 185.534V176.806H384.418V185.534H382.719ZM383.577 175.46C383.282 175.46 383.028 175.361 382.816 175.164C382.608 174.964 382.504 174.725 382.504 174.448C382.504 174.168 382.608 173.93 382.816 173.733C383.028 173.532 383.282 173.431 383.577 173.431C383.873 173.431 384.125 173.532 384.333 173.733C384.545 173.93 384.651 174.168 384.651 174.448C384.651 174.725 384.545 174.964 384.333 175.164C384.125 175.361 383.873 175.46 383.577 175.46ZM389.795 185.704C389.09 185.704 388.462 185.524 387.908 185.164C387.359 184.801 386.927 184.284 386.613 183.613C386.302 182.939 386.147 182.13 386.147 181.187C386.147 180.244 386.304 179.437 386.619 178.767C386.937 178.096 387.372 177.583 387.926 177.227C388.479 176.871 389.105 176.693 389.806 176.693C390.348 176.693 390.783 176.784 391.113 176.966C391.446 177.144 391.704 177.352 391.886 177.591C392.071 177.829 392.215 178.039 392.318 178.221H392.42V173.897H394.119V185.534H392.46V184.176H392.318C392.215 184.361 392.068 184.573 391.874 184.812C391.685 185.051 391.424 185.259 391.09 185.437C390.757 185.615 390.325 185.704 389.795 185.704ZM390.17 184.255C390.658 184.255 391.071 184.126 391.408 183.869C391.749 183.608 392.007 183.246 392.181 182.784C392.359 182.322 392.448 181.784 392.448 181.17C392.448 180.564 392.361 180.034 392.187 179.579C392.013 179.125 391.757 178.77 391.42 178.517C391.083 178.263 390.666 178.136 390.17 178.136C389.658 178.136 389.232 178.269 388.891 178.534C388.551 178.799 388.293 179.161 388.119 179.619C387.948 180.077 387.863 180.594 387.863 181.17C387.863 181.753 387.95 182.278 388.124 182.744C388.299 183.21 388.556 183.579 388.897 183.852C389.242 184.121 389.666 184.255 390.17 184.255ZM400.129 185.71C399.269 185.71 398.528 185.526 397.907 185.159C397.29 184.787 396.813 184.267 396.475 183.596C396.142 182.922 395.975 182.132 395.975 181.227C395.975 180.333 396.142 179.545 396.475 178.863C396.813 178.181 397.282 177.649 397.884 177.267C398.491 176.884 399.199 176.693 400.009 176.693C400.502 176.693 400.979 176.774 401.441 176.937C401.903 177.1 402.318 177.356 402.686 177.704C403.053 178.053 403.343 178.505 403.555 179.062C403.767 179.615 403.873 180.287 403.873 181.079V181.681H396.936V180.409H402.208C402.208 179.962 402.117 179.566 401.936 179.221C401.754 178.873 401.498 178.598 401.169 178.397C400.843 178.197 400.46 178.096 400.021 178.096C399.544 178.096 399.127 178.214 398.771 178.448C398.419 178.68 398.146 178.983 397.953 179.358C397.763 179.729 397.669 180.132 397.669 180.568V181.562C397.669 182.145 397.771 182.642 397.975 183.051C398.184 183.46 398.473 183.772 398.845 183.988C399.216 184.2 399.65 184.306 400.146 184.306C400.468 184.306 400.761 184.261 401.027 184.17C401.292 184.075 401.521 183.935 401.714 183.75C401.907 183.564 402.055 183.335 402.157 183.062L403.765 183.352C403.636 183.825 403.405 184.24 403.072 184.596C402.742 184.948 402.328 185.223 401.828 185.42C401.331 185.613 400.765 185.71 400.129 185.71ZM407.281 180.352V185.534H405.582V176.806H407.213V178.227H407.321C407.521 177.765 407.836 177.394 408.264 177.113C408.696 176.833 409.239 176.693 409.895 176.693C410.489 176.693 411.01 176.818 411.457 177.068C411.904 177.314 412.251 177.681 412.497 178.17C412.743 178.659 412.866 179.263 412.866 179.983V185.534H411.167V180.187C411.167 179.555 411.003 179.06 410.673 178.704C410.343 178.344 409.891 178.164 409.315 178.164C408.921 178.164 408.571 178.25 408.264 178.42C407.961 178.591 407.72 178.841 407.542 179.17C407.368 179.496 407.281 179.89 407.281 180.352ZM419.042 176.806V178.17H414.275V176.806H419.042ZM415.554 174.716H417.253V182.971C417.253 183.301 417.302 183.549 417.4 183.716C417.499 183.878 417.626 183.99 417.781 184.051C417.94 184.108 418.112 184.136 418.298 184.136C418.434 184.136 418.554 184.126 418.656 184.108C418.758 184.089 418.838 184.073 418.895 184.062L419.202 185.466C419.103 185.503 418.963 185.541 418.781 185.579C418.599 185.621 418.372 185.644 418.099 185.647C417.652 185.655 417.236 185.575 416.849 185.409C416.463 185.242 416.15 184.984 415.912 184.636C415.673 184.287 415.554 183.85 415.554 183.323V174.716ZM420.746 185.534V176.806H422.445V185.534H420.746ZM421.604 175.46C421.308 175.46 421.054 175.361 420.842 175.164C420.634 174.964 420.53 174.725 420.53 174.448C420.53 174.168 420.634 173.93 420.842 173.733C421.054 173.532 421.308 173.431 421.604 173.431C421.899 173.431 422.151 173.532 422.359 173.733C422.571 173.93 422.678 174.168 422.678 174.448C422.678 174.725 422.571 174.964 422.359 175.164C422.151 175.361 421.899 175.46 421.604 175.46ZM427.094 185.727C426.541 185.727 426.041 185.625 425.594 185.42C425.147 185.212 424.793 184.911 424.531 184.517C424.274 184.123 424.145 183.64 424.145 183.068C424.145 182.575 424.24 182.17 424.429 181.852C424.618 181.534 424.874 181.282 425.196 181.096C425.518 180.911 425.878 180.77 426.276 180.676C426.673 180.581 427.079 180.509 427.492 180.46C428.014 180.399 428.439 180.35 428.764 180.312C429.09 180.27 429.327 180.204 429.475 180.113C429.622 180.022 429.696 179.875 429.696 179.67V179.63C429.696 179.134 429.556 178.75 429.276 178.477C428.999 178.204 428.586 178.068 428.037 178.068C427.465 178.068 427.014 178.195 426.685 178.448C426.359 178.698 426.134 178.977 426.009 179.284L424.412 178.92C424.601 178.39 424.878 177.962 425.242 177.636C425.609 177.306 426.031 177.068 426.509 176.92C426.986 176.769 427.488 176.693 428.014 176.693C428.363 176.693 428.732 176.734 429.122 176.818C429.516 176.897 429.884 177.045 430.225 177.261C430.569 177.477 430.851 177.786 431.071 178.187C431.291 178.585 431.401 179.102 431.401 179.738V185.534H429.742V184.341H429.673C429.564 184.56 429.399 184.776 429.179 184.988C428.959 185.2 428.677 185.376 428.332 185.517C427.988 185.657 427.575 185.727 427.094 185.727ZM427.463 184.363C427.933 184.363 428.334 184.27 428.668 184.085C429.005 183.899 429.26 183.657 429.435 183.358C429.613 183.055 429.702 182.731 429.702 182.386V181.261C429.641 181.322 429.524 181.378 429.35 181.431C429.179 181.481 428.984 181.524 428.764 181.562C428.545 181.596 428.331 181.628 428.122 181.659C427.914 181.685 427.74 181.708 427.6 181.727C427.27 181.769 426.969 181.839 426.696 181.937C426.427 182.036 426.211 182.178 426.048 182.363C425.889 182.545 425.81 182.787 425.81 183.091C425.81 183.511 425.965 183.829 426.276 184.045C426.586 184.257 426.982 184.363 427.463 184.363ZM435.186 173.897V185.534H433.487V173.897H435.186Z" fill="#062540"/>
<path d="M397.131 224.427C397.131 223.322 396.236 222.427 395.131 222.427C394.027 222.427 393.131 223.322 393.131 224.427H397.131ZM300.635 285.487C301.416 286.268 302.683 286.268 303.464 285.487L316.192 272.759C316.973 271.978 316.973 270.712 316.192 269.931C315.411 269.15 314.144 269.15 313.363 269.931L302.05 281.245L290.736 269.931C289.955 269.15 288.688 269.15 287.907 269.931C287.126 270.712 287.126 271.978 287.907 272.759L300.635 285.487ZM393.131 224.427V230.5H397.131V224.427H393.131ZM371.131 252.5H326.05V256.5H371.131V252.5ZM300.05 278.5V284.073H304.05V278.5H300.05ZM326.05 252.5C311.69 252.5 300.05 264.14 300.05 278.5H304.05C304.05 266.35 313.899 256.5 326.05 256.5V252.5ZM393.131 230.5C393.131 242.65 383.282 252.5 371.131 252.5V256.5C385.491 256.5 397.131 244.859 397.131 230.5H393.131Z" fill="#062540"/>
<rect x="3" y="144" width="146.272" height="72.8933" rx="6" fill="#E3F5FC" stroke="#062540" stroke-width="4" stroke-linecap="round"/>
<path d="M42.3397 178.148H40.567C40.4988 177.769 40.3719 177.436 40.1863 177.148C40.0007 176.86 39.7734 176.616 39.5045 176.415C39.2355 176.214 38.9344 176.062 38.6011 175.96C38.2715 175.858 37.9212 175.807 37.5499 175.807C36.8795 175.807 36.2791 175.975 35.7488 176.312C35.2223 176.65 34.8056 177.144 34.4988 177.795C34.1958 178.447 34.0443 179.242 34.0443 180.182C34.0443 181.129 34.1958 181.928 34.4988 182.58C34.8056 183.231 35.2242 183.723 35.7545 184.057C36.2848 184.39 36.8814 184.557 37.5443 184.557C37.9117 184.557 38.2602 184.508 38.5897 184.409C38.923 184.307 39.2242 184.157 39.4931 183.96C39.7621 183.763 39.9893 183.523 40.1749 183.239C40.3643 182.951 40.495 182.621 40.567 182.25L42.3397 182.256C42.245 182.828 42.0613 183.354 41.7886 183.835C41.5196 184.312 41.173 184.725 40.7488 185.074C40.3283 185.419 39.8473 185.686 39.3056 185.875C38.764 186.064 38.173 186.159 37.5329 186.159C36.5253 186.159 35.6276 185.92 34.8397 185.443C34.0518 184.962 33.4306 184.275 32.9761 183.381C32.5253 182.487 32.2999 181.42 32.2999 180.182C32.2999 178.939 32.5272 177.873 32.9818 176.983C33.4363 176.089 34.0575 175.403 34.8454 174.926C35.6333 174.445 36.5291 174.205 37.5329 174.205C38.1503 174.205 38.7261 174.294 39.2602 174.472C39.798 174.646 40.281 174.903 40.709 175.244C41.1371 175.581 41.4912 175.994 41.7715 176.483C42.0518 176.968 42.2412 177.523 42.3397 178.148ZM47.8043 186.176C46.9862 186.176 46.2721 185.989 45.6623 185.614C45.0524 185.239 44.579 184.714 44.2418 184.04C43.9047 183.366 43.7362 182.578 43.7362 181.676C43.7362 180.771 43.9047 179.979 44.2418 179.301C44.579 178.623 45.0524 178.097 45.6623 177.722C46.2721 177.347 46.9862 177.159 47.8043 177.159C48.6225 177.159 49.3365 177.347 49.9464 177.722C50.5562 178.097 51.0297 178.623 51.3668 179.301C51.704 179.979 51.8725 180.771 51.8725 181.676C51.8725 182.578 51.704 183.366 51.3668 184.04C51.0297 184.714 50.5562 185.239 49.9464 185.614C49.3365 185.989 48.6225 186.176 47.8043 186.176ZM47.81 184.75C48.3403 184.75 48.7797 184.61 49.1282 184.33C49.4767 184.049 49.7343 183.676 49.9009 183.21C50.0714 182.744 50.1566 182.231 50.1566 181.67C50.1566 181.114 50.0714 180.602 49.9009 180.136C49.7343 179.667 49.4767 179.29 49.1282 179.006C48.7797 178.722 48.3403 178.58 47.81 178.58C47.2759 178.58 46.8327 178.722 46.4805 179.006C46.132 179.29 45.8725 179.667 45.7021 180.136C45.5354 180.602 45.4521 181.114 45.4521 181.67C45.4521 182.231 45.5354 182.744 45.7021 183.21C45.8725 183.676 46.132 184.049 46.4805 184.33C46.8327 184.61 47.2759 184.75 47.81 184.75ZM53.5928 186V177.273H55.2235V178.693H55.3315C55.5133 178.212 55.8106 177.837 56.2235 177.568C56.6364 177.295 57.1307 177.159 57.7065 177.159C58.2898 177.159 58.7784 177.295 59.1724 177.568C59.5701 177.841 59.8637 178.216 60.0531 178.693H60.144C60.3523 178.227 60.6837 177.856 61.1383 177.58C61.5928 177.299 62.1345 177.159 62.7633 177.159C63.5549 177.159 64.2008 177.407 64.7008 177.903C65.2046 178.4 65.4565 179.148 65.4565 180.148V186H63.7576V180.307C63.7576 179.716 63.5966 179.288 63.2746 179.023C62.9527 178.758 62.5682 178.625 62.1212 178.625C61.5682 178.625 61.1383 178.795 60.8315 179.136C60.5246 179.473 60.3712 179.907 60.3712 180.438V186H58.6781V180.199C58.6781 179.725 58.5303 179.345 58.2349 179.057C57.9394 178.769 57.5549 178.625 57.0815 178.625C56.7595 178.625 56.4621 178.71 56.1894 178.881C55.9205 179.047 55.7027 179.28 55.536 179.58C55.3731 179.879 55.2917 180.225 55.2917 180.619V186H53.5928ZM67.5575 186V177.273H69.1881V178.693H69.2961C69.4779 178.212 69.7753 177.837 70.1881 177.568C70.601 177.295 71.0953 177.159 71.6711 177.159C72.2544 177.159 72.7431 177.295 73.137 177.568C73.5347 177.841 73.8283 178.216 74.0177 178.693H74.1086C74.3169 178.227 74.6484 177.856 75.1029 177.58C75.5575 177.299 76.0991 177.159 76.7279 177.159C77.5196 177.159 78.1654 177.407 78.6654 177.903C79.1692 178.4 79.4211 179.148 79.4211 180.148V186H77.7222V180.307C77.7222 179.716 77.5612 179.288 77.2393 179.023C76.9173 178.758 76.5328 178.625 76.0859 178.625C75.5328 178.625 75.1029 178.795 74.7961 179.136C74.4893 179.473 74.3359 179.907 74.3359 180.438V186H72.6427V180.199C72.6427 179.725 72.495 179.345 72.1995 179.057C71.904 178.769 71.5196 178.625 71.0461 178.625C70.7241 178.625 70.4268 178.71 70.154 178.881C69.8851 179.047 69.6673 179.28 69.5006 179.58C69.3378 179.879 69.2563 180.225 69.2563 180.619V186H67.5575ZM85.2834 186.176C84.4236 186.176 83.6831 185.992 83.0619 185.625C82.4444 185.254 81.9672 184.733 81.63 184.062C81.2967 183.388 81.13 182.598 81.13 181.693C81.13 180.799 81.2967 180.011 81.63 179.33C81.9672 178.648 82.4369 178.116 83.0391 177.733C83.6452 177.35 84.3535 177.159 85.1641 177.159C85.6566 177.159 86.1338 177.241 86.5959 177.403C87.0581 177.566 87.4728 177.822 87.8403 178.17C88.2077 178.519 88.4975 178.972 88.7096 179.528C88.9217 180.081 89.0278 180.754 89.0278 181.545V182.148H82.0903V180.875H87.363C87.363 180.428 87.2721 180.032 87.0903 179.688C86.9084 179.339 86.6528 179.064 86.3232 178.864C85.9975 178.663 85.6149 178.562 85.1755 178.562C84.6982 178.562 84.2816 178.68 83.9255 178.915C83.5732 179.146 83.3005 179.449 83.1073 179.824C82.9179 180.195 82.8232 180.598 82.8232 181.034V182.028C82.8232 182.612 82.9255 183.108 83.13 183.517C83.3384 183.926 83.6281 184.239 83.9994 184.455C84.3706 184.667 84.8043 184.773 85.3005 184.773C85.6225 184.773 85.916 184.727 86.1812 184.636C86.4463 184.542 86.6755 184.402 86.8687 184.216C87.0619 184.03 87.2096 183.801 87.3119 183.528L88.9198 183.818C88.791 184.292 88.56 184.706 88.2266 185.062C87.8971 185.415 87.4823 185.689 86.9823 185.886C86.4861 186.08 85.9198 186.176 85.2834 186.176ZM90.7367 186V177.273H92.3787V178.659H92.4697C92.6287 178.189 92.909 177.82 93.3106 177.551C93.7159 177.278 94.1742 177.142 94.6856 177.142C94.7916 177.142 94.9166 177.146 95.0606 177.153C95.2083 177.161 95.3238 177.17 95.4072 177.182V178.807C95.339 178.788 95.2178 178.767 95.0435 178.744C94.8693 178.718 94.695 178.705 94.5208 178.705C94.1193 178.705 93.7613 178.79 93.4469 178.96C93.1363 179.127 92.8901 179.36 92.7083 179.659C92.5265 179.955 92.4356 180.292 92.4356 180.67V186H90.7367ZM100.065 186.176C99.2203 186.176 98.493 185.985 97.8831 185.602C97.2771 185.216 96.8112 184.684 96.4854 184.006C96.1597 183.328 95.9968 182.551 95.9968 181.676C95.9968 180.79 96.1634 180.008 96.4968 179.33C96.8301 178.648 97.2998 178.116 97.9059 177.733C98.5119 177.35 99.2259 177.159 100.048 177.159C100.711 177.159 101.302 177.282 101.821 177.528C102.34 177.771 102.758 178.112 103.076 178.551C103.398 178.991 103.59 179.504 103.65 180.091H101.997C101.906 179.682 101.698 179.33 101.372 179.034C101.05 178.739 100.618 178.591 100.076 178.591C99.6028 178.591 99.1881 178.716 98.832 178.966C98.4797 179.212 98.2051 179.564 98.0081 180.023C97.8112 180.477 97.7127 181.015 97.7127 181.636C97.7127 182.273 97.8093 182.822 98.0025 183.284C98.1956 183.746 98.4684 184.104 98.8206 184.358C99.1767 184.612 99.5953 184.739 100.076 184.739C100.398 184.739 100.69 184.68 100.951 184.562C101.216 184.441 101.438 184.269 101.616 184.045C101.798 183.822 101.925 183.553 101.997 183.239H103.65C103.59 183.803 103.406 184.307 103.099 184.75C102.792 185.193 102.381 185.542 101.866 185.795C101.355 186.049 100.754 186.176 100.065 186.176ZM105.291 186V177.273H106.99V186H105.291ZM106.149 175.926C105.853 175.926 105.6 175.828 105.388 175.631C105.179 175.43 105.075 175.191 105.075 174.915C105.075 174.634 105.179 174.396 105.388 174.199C105.6 173.998 105.853 173.898 106.149 173.898C106.444 173.898 106.696 173.998 106.905 174.199C107.117 174.396 107.223 174.634 107.223 174.915C107.223 175.191 107.117 175.43 106.905 175.631C106.696 175.828 106.444 175.926 106.149 175.926ZM111.639 186.193C111.086 186.193 110.586 186.091 110.139 185.886C109.692 185.678 109.338 185.377 109.077 184.983C108.819 184.589 108.69 184.106 108.69 183.534C108.69 183.042 108.785 182.636 108.974 182.318C109.164 182 109.419 181.748 109.741 181.562C110.063 181.377 110.423 181.237 110.821 181.142C111.219 181.047 111.624 180.975 112.037 180.926C112.56 180.866 112.984 180.816 113.31 180.778C113.635 180.737 113.872 180.67 114.02 180.58C114.168 180.489 114.241 180.341 114.241 180.136V180.097C114.241 179.6 114.101 179.216 113.821 178.943C113.544 178.67 113.132 178.534 112.582 178.534C112.01 178.534 111.56 178.661 111.23 178.915C110.904 179.165 110.679 179.443 110.554 179.75L108.957 179.386C109.147 178.856 109.423 178.428 109.787 178.102C110.154 177.773 110.577 177.534 111.054 177.386C111.531 177.235 112.033 177.159 112.56 177.159C112.908 177.159 113.277 177.201 113.668 177.284C114.061 177.364 114.429 177.511 114.77 177.727C115.114 177.943 115.397 178.252 115.616 178.653C115.836 179.051 115.946 179.568 115.946 180.205V186H114.287V184.807H114.219C114.109 185.027 113.944 185.242 113.724 185.455C113.505 185.667 113.222 185.843 112.878 185.983C112.533 186.123 112.12 186.193 111.639 186.193ZM112.008 184.83C112.478 184.83 112.88 184.737 113.213 184.551C113.55 184.366 113.806 184.123 113.98 183.824C114.158 183.521 114.247 183.197 114.247 182.852V181.727C114.186 181.788 114.069 181.845 113.895 181.898C113.724 181.947 113.529 181.991 113.31 182.028C113.09 182.062 112.876 182.095 112.668 182.125C112.459 182.152 112.285 182.174 112.145 182.193C111.815 182.235 111.514 182.305 111.241 182.403C110.972 182.502 110.757 182.644 110.594 182.83C110.435 183.011 110.355 183.254 110.355 183.557C110.355 183.977 110.51 184.295 110.821 184.511C111.132 184.723 111.527 184.83 112.008 184.83ZM119.732 174.364V186H118.033V174.364H119.732Z" fill="#062540"/>
<path d="M78.1357 224.893C78.1357 223.788 77.2403 222.893 76.1357 222.893C75.0312 222.893 74.1357 223.788 74.1357 224.893H78.1357ZM300.635 285.487C301.416 286.268 302.683 286.268 303.464 285.487L316.192 272.759C316.973 271.978 316.973 270.712 316.192 269.931C315.411 269.15 314.144 269.15 313.363 269.931L302.05 281.245L290.736 269.931C289.955 269.15 288.688 269.15 287.907 269.931C287.126 270.712 287.126 271.978 287.907 272.759L300.635 285.487ZM74.1357 224.893V230.733H78.1357V224.893H74.1357ZM100.136 256.733H278.05V252.733H100.136V256.733ZM300.05 278.733V284.073H304.05V278.733H300.05ZM278.05 256.733C290.2 256.733 300.05 266.583 300.05 278.733H304.05C304.05 264.374 292.409 252.733 278.05 252.733V256.733ZM74.1357 230.733C74.1357 245.092 85.7763 256.733 100.136 256.733V252.733C87.9855 252.733 78.1357 242.883 78.1357 230.733H74.1357Z" fill="#062540"/>
<rect x="2.85791" y="292.573" width="146.272" height="72.8933" rx="6" fill="#E3F5FC" stroke="#062540" stroke-width="4" stroke-linecap="round"/>
<path d="M14.9103 334.573V322.937H19.0581C19.9596 322.937 20.7077 323.092 21.3024 323.403C21.9009 323.713 22.3478 324.143 22.6433 324.693C22.9388 325.238 23.0865 325.869 23.0865 326.585C23.0865 327.297 22.9369 327.924 22.6376 328.465C22.3422 329.003 21.8952 329.422 21.2967 329.721C20.702 330.02 19.9539 330.17 19.0524 330.17H15.9103V328.658H18.8933C19.4615 328.658 19.9236 328.577 20.2797 328.414C20.6395 328.251 20.9028 328.015 21.0694 327.704C21.2361 327.393 21.3194 327.02 21.3194 326.585C21.3194 326.145 21.2342 325.765 21.0638 325.443C20.8971 325.121 20.6338 324.874 20.274 324.704C19.9179 324.53 19.4501 324.443 18.8706 324.443H16.666V334.573H14.9103ZM20.6547 329.323L23.5297 334.573H21.5297L18.7115 329.323H20.6547ZM28.5625 334.749C27.7026 334.749 26.9621 334.566 26.3409 334.198C25.7235 333.827 25.2462 333.306 24.9091 332.636C24.5757 331.961 24.4091 331.172 24.4091 330.266C24.4091 329.372 24.5757 328.585 24.9091 327.903C25.2462 327.221 25.7159 326.689 26.3182 326.306C26.9242 325.924 27.6325 325.732 28.4432 325.732C28.9356 325.732 29.4129 325.814 29.875 325.977C30.3371 326.14 30.7519 326.395 31.1193 326.744C31.4867 327.092 31.7765 327.545 31.9886 328.102C32.2007 328.655 32.3068 329.327 32.3068 330.119V330.721H25.3693V329.448H30.642C30.642 329.001 30.5511 328.605 30.3693 328.261C30.1875 327.912 29.9318 327.638 29.6022 327.437C29.2765 327.236 28.8939 327.136 28.4545 327.136C27.9772 327.136 27.5606 327.253 27.2045 327.488C26.8522 327.719 26.5795 328.022 26.3863 328.397C26.1969 328.768 26.1022 329.172 26.1022 329.607V330.602C26.1022 331.185 26.2045 331.681 26.4091 332.09C26.6174 332.499 26.9072 332.812 27.2784 333.028C27.6496 333.24 28.0833 333.346 28.5795 333.346C28.9015 333.346 29.195 333.301 29.4602 333.21C29.7254 333.115 29.9545 332.975 30.1477 332.789C30.3409 332.604 30.4886 332.374 30.5909 332.102L32.1988 332.391C32.07 332.865 31.839 333.28 31.5057 333.636C31.1761 333.988 30.7613 334.263 30.2613 334.46C29.7651 334.653 29.1988 334.749 28.5625 334.749ZM39.9078 337.846V333.215H39.8055C39.7032 333.401 39.5555 333.613 39.3623 333.852C39.1729 334.09 38.9116 334.299 38.5782 334.477C38.2449 334.655 37.8131 334.744 37.2828 334.744C36.5782 334.744 35.9494 334.564 35.3964 334.204C34.8472 333.84 34.4154 333.323 34.101 332.653C33.7904 331.979 33.6351 331.17 33.6351 330.227C33.6351 329.283 33.7923 328.477 34.1066 327.806C34.4248 327.136 34.8604 326.622 35.4135 326.266C35.9665 325.91 36.5934 325.732 37.2941 325.732C37.8358 325.732 38.2714 325.823 38.601 326.005C38.9343 326.183 39.1919 326.391 39.3737 326.63C39.5593 326.869 39.7032 327.079 39.8055 327.261H39.9476V325.846H41.6066V337.846H39.9078ZM37.6578 333.295C38.1464 333.295 38.5593 333.166 38.8964 332.908C39.2373 332.647 39.4949 332.285 39.6691 331.823C39.8472 331.361 39.9362 330.823 39.9362 330.21C39.9362 329.604 39.8491 329.073 39.6748 328.619C39.5006 328.164 39.2449 327.81 38.9078 327.556C38.5707 327.302 38.154 327.176 37.6578 327.176C37.1464 327.176 36.7203 327.308 36.3794 327.573C36.0385 327.838 35.7809 328.2 35.6066 328.658C35.4362 329.117 35.351 329.634 35.351 330.21C35.351 330.793 35.4381 331.318 35.6123 331.783C35.7866 332.249 36.0441 332.619 36.3851 332.891C36.7298 333.16 37.154 333.295 37.6578 333.295ZM49.2431 330.954V325.846H50.9477V334.573H49.2772V333.062H49.1863C48.9856 333.528 48.6636 333.916 48.2204 334.227C47.781 334.533 47.2337 334.687 46.5784 334.687C46.0178 334.687 45.5216 334.564 45.0897 334.318C44.6617 334.068 44.3246 333.698 44.0784 333.21C43.8359 332.721 43.7147 332.117 43.7147 331.397V325.846H45.4136V331.193C45.4136 331.787 45.5784 332.261 45.9079 332.613C46.2375 332.965 46.6655 333.141 47.192 333.141C47.5102 333.141 47.8265 333.062 48.1409 332.903C48.4591 332.744 48.7223 332.503 48.9306 332.181C49.1428 331.859 49.2469 331.45 49.2431 330.954ZM56.8157 334.749C55.9559 334.749 55.2153 334.566 54.5941 334.198C53.9767 333.827 53.4994 333.306 53.1623 332.636C52.829 331.961 52.6623 331.172 52.6623 330.266C52.6623 329.372 52.829 328.585 53.1623 327.903C53.4994 327.221 53.9691 326.689 54.5714 326.306C55.1775 325.924 55.8858 325.732 56.6964 325.732C57.1888 325.732 57.6661 325.814 58.1282 325.977C58.5903 326.14 59.0051 326.395 59.3725 326.744C59.74 327.092 60.0297 327.545 60.2419 328.102C60.454 328.655 60.56 329.327 60.56 330.119V330.721H53.6225V329.448H58.8953C58.8953 329.001 58.8044 328.605 58.6225 328.261C58.4407 327.912 58.185 327.638 57.8555 327.437C57.5297 327.236 57.1472 327.136 56.7078 327.136C56.2305 327.136 55.8138 327.253 55.4578 327.488C55.1055 327.719 54.8328 328.022 54.6396 328.397C54.4502 328.768 54.3555 329.172 54.3555 329.607V330.602C54.3555 331.185 54.4578 331.681 54.6623 332.09C54.8706 332.499 55.1604 332.812 55.5316 333.028C55.9028 333.24 56.3366 333.346 56.8328 333.346C57.1547 333.346 57.4483 333.301 57.7135 333.21C57.9786 333.115 58.2078 332.975 58.401 332.789C58.5941 332.604 58.7419 332.374 58.8441 332.102L60.4521 332.391C60.3233 332.865 60.0922 333.28 59.7589 333.636C59.4294 333.988 59.0146 334.263 58.5146 334.46C58.0184 334.653 57.4521 334.749 56.8157 334.749ZM68.8088 327.977L67.269 328.249C67.2046 328.052 67.1023 327.865 66.9622 327.687C66.8258 327.509 66.6402 327.363 66.4053 327.249C66.1705 327.136 65.8769 327.079 65.5247 327.079C65.0436 327.079 64.6421 327.187 64.3201 327.403C63.9982 327.615 63.8372 327.89 63.8372 328.227C63.8372 328.518 63.9451 328.753 64.161 328.931C64.3769 329.109 64.7254 329.255 65.2065 329.369L66.5928 329.687C67.3959 329.872 67.9944 330.158 68.3883 330.545C68.7822 330.931 68.9792 331.433 68.9792 332.051C68.9792 332.573 68.8277 333.039 68.5247 333.448C68.2254 333.854 67.8069 334.172 67.269 334.403C66.7349 334.634 66.1156 334.749 65.411 334.749C64.4338 334.749 63.6364 334.541 63.019 334.124C62.4016 333.704 62.0228 333.107 61.8826 332.335L63.5247 332.085C63.6269 332.513 63.8372 332.836 64.1553 333.056C64.4735 333.272 64.8883 333.38 65.3997 333.38C65.9565 333.38 66.4016 333.265 66.7349 333.033C67.0682 332.799 67.2349 332.513 67.2349 332.176C67.2349 331.903 67.1326 331.674 66.9281 331.488C66.7273 331.302 66.4186 331.162 66.0019 331.068L64.5247 330.744C63.7103 330.558 63.108 330.263 62.7178 329.857C62.3315 329.452 62.1383 328.939 62.1383 328.318C62.1383 327.802 62.2822 327.352 62.5701 326.965C62.858 326.579 63.2557 326.278 63.7633 326.062C64.2709 325.842 64.8523 325.732 65.5076 325.732C66.4508 325.732 67.1932 325.937 67.7349 326.346C68.2766 326.751 68.6345 327.295 68.8088 327.977ZM74.745 325.846V327.21H69.9779V325.846H74.745ZM71.2563 323.755H72.9552V332.011C72.9552 332.34 73.0044 332.588 73.1029 332.755C73.2014 332.918 73.3283 333.03 73.4836 333.09C73.6427 333.147 73.815 333.176 74.0007 333.176C74.137 333.176 74.2563 333.166 74.3586 333.147C74.4609 333.128 74.5404 333.113 74.5972 333.102L74.9041 334.505C74.8056 334.543 74.6654 334.581 74.4836 334.619C74.3018 334.66 74.0745 334.683 73.8018 334.687C73.3548 334.694 72.9382 334.615 72.5518 334.448C72.1654 334.282 71.8529 334.024 71.6143 333.676C71.3757 333.327 71.2563 332.89 71.2563 332.363V323.755ZM83.0464 334.766C82.4934 334.766 81.9934 334.664 81.5464 334.46C81.0994 334.251 80.7452 333.95 80.4839 333.556C80.2263 333.162 80.0975 332.679 80.0975 332.107C80.0975 331.615 80.1922 331.21 80.3816 330.891C80.571 330.573 80.8267 330.321 81.1487 330.136C81.4706 329.95 81.8305 329.81 82.2282 329.715C82.6259 329.621 83.0312 329.549 83.4441 329.499C83.9668 329.439 84.3911 329.39 84.7168 329.352C85.0426 329.31 85.2793 329.244 85.4271 329.153C85.5748 329.062 85.6487 328.914 85.6487 328.71V328.67C85.6487 328.174 85.5085 327.789 85.2282 327.516C84.9517 327.244 84.5388 327.107 83.9896 327.107C83.4176 327.107 82.9668 327.234 82.6373 327.488C82.3115 327.738 82.0862 328.016 81.9612 328.323L80.3646 327.96C80.554 327.429 80.8305 327.001 81.1941 326.676C81.5615 326.346 81.9839 326.107 82.4612 325.96C82.9384 325.808 83.4403 325.732 83.9668 325.732C84.3153 325.732 84.6846 325.774 85.0748 325.857C85.4687 325.937 85.8362 326.085 86.1771 326.301C86.5218 326.516 86.804 326.825 87.0237 327.227C87.2434 327.624 87.3532 328.141 87.3532 328.778V334.573H85.6941V333.38H85.6259C85.5161 333.6 85.3513 333.816 85.1316 334.028C84.9119 334.24 84.6297 334.416 84.285 334.556C83.9403 334.696 83.5274 334.766 83.0464 334.766ZM83.4157 333.403C83.8854 333.403 84.2869 333.31 84.6202 333.124C84.9574 332.939 85.213 332.696 85.3873 332.397C85.5653 332.094 85.6543 331.77 85.6543 331.426V330.301C85.5937 330.361 85.4763 330.418 85.3021 330.471C85.1316 330.52 84.9365 330.564 84.7168 330.602C84.4971 330.636 84.2831 330.668 84.0748 330.698C83.8665 330.725 83.6922 330.747 83.5521 330.766C83.2225 330.808 82.9214 330.878 82.6487 330.977C82.3797 331.075 82.1638 331.217 82.0009 331.403C81.8418 331.585 81.7623 331.827 81.7623 332.13C81.7623 332.551 81.9176 332.869 82.2282 333.085C82.5388 333.297 82.9346 333.403 83.4157 333.403ZM97.9131 330.801H99.6404L100.856 332.386L101.43 333.09L103.368 335.619H101.572L100.277 333.931L99.8336 333.318L97.9131 330.801ZM103.743 328.755C103.743 329.997 103.515 331.066 103.061 331.96C102.606 332.85 101.983 333.535 101.192 334.016C100.404 334.494 99.5078 334.732 98.504 334.732C97.4965 334.732 96.5968 334.494 95.8052 334.016C95.0173 333.535 94.3961 332.848 93.9415 331.954C93.487 331.06 93.2597 329.994 93.2597 328.755C93.2597 327.513 93.487 326.446 93.9415 325.556C94.3961 324.662 95.0173 323.977 95.8052 323.499C96.5968 323.018 97.4965 322.778 98.504 322.778C99.5078 322.778 100.404 323.018 101.192 323.499C101.983 323.977 102.606 324.662 103.061 325.556C103.515 326.446 103.743 327.513 103.743 328.755ZM102.004 328.755C102.004 327.808 101.851 327.011 101.544 326.363C101.241 325.711 100.824 325.219 100.294 324.886C99.7673 324.549 99.1707 324.38 98.504 324.38C97.8336 324.38 97.2351 324.549 96.7086 324.886C96.1821 325.219 95.7654 325.711 95.4586 326.363C95.1556 327.011 95.004 327.808 95.004 328.755C95.004 329.702 95.1556 330.501 95.4586 331.153C95.7654 331.801 96.1821 332.293 96.7086 332.63C97.2351 332.963 97.8336 333.13 98.504 333.13C99.1707 333.13 99.7673 332.963 100.294 332.63C100.824 332.293 101.241 331.801 101.544 331.153C101.851 330.501 102.004 329.702 102.004 328.755ZM111.148 330.954V325.846H112.852V334.573H111.182V333.062H111.091C110.89 333.528 110.568 333.916 110.125 334.227C109.686 334.533 109.138 334.687 108.483 334.687C107.922 334.687 107.426 334.564 106.994 334.318C106.566 334.068 106.229 333.698 105.983 333.21C105.74 332.721 105.619 332.117 105.619 331.397V325.846H107.318V331.193C107.318 331.787 107.483 332.261 107.812 332.613C108.142 332.965 108.57 333.141 109.097 333.141C109.415 333.141 109.731 333.062 110.045 332.903C110.364 332.744 110.627 332.503 110.835 332.181C111.047 331.859 111.151 331.45 111.148 330.954ZM118.635 334.749C117.817 334.749 117.103 334.562 116.493 334.187C115.883 333.812 115.41 333.287 115.073 332.613C114.735 331.939 114.567 331.151 114.567 330.249C114.567 329.344 114.735 328.552 115.073 327.874C115.41 327.196 115.883 326.67 116.493 326.295C117.103 325.92 117.817 325.732 118.635 325.732C119.453 325.732 120.167 325.92 120.777 326.295C121.387 326.67 121.86 327.196 122.198 327.874C122.535 328.552 122.703 329.344 122.703 330.249C122.703 331.151 122.535 331.939 122.198 332.613C121.86 333.287 121.387 333.812 120.777 334.187C120.167 334.562 119.453 334.749 118.635 334.749ZM118.641 333.323C119.171 333.323 119.61 333.183 119.959 332.903C120.307 332.622 120.565 332.249 120.732 331.783C120.902 331.318 120.987 330.804 120.987 330.244C120.987 329.687 120.902 329.176 120.732 328.71C120.565 328.24 120.307 327.863 119.959 327.579C119.61 327.295 119.171 327.153 118.641 327.153C118.107 327.153 117.663 327.295 117.311 327.579C116.963 327.863 116.703 328.24 116.533 328.71C116.366 329.176 116.283 329.687 116.283 330.244C116.283 330.804 116.366 331.318 116.533 331.783C116.703 332.249 116.963 332.622 117.311 332.903C117.663 333.183 118.107 333.323 118.641 333.323ZM128.497 325.846V327.21H123.73V325.846H128.497ZM125.009 323.755H126.708V332.011C126.708 332.34 126.757 332.588 126.855 332.755C126.954 332.918 127.081 333.03 127.236 333.09C127.395 333.147 127.567 333.176 127.753 333.176C127.889 333.176 128.009 333.166 128.111 333.147C128.213 333.128 128.293 333.113 128.35 333.102L128.656 334.505C128.558 334.543 128.418 334.581 128.236 334.619C128.054 334.66 127.827 334.683 127.554 334.687C127.107 334.694 126.691 334.615 126.304 334.448C125.918 334.282 125.605 334.024 125.367 333.676C125.128 333.327 125.009 332.89 125.009 332.363V323.755ZM133.868 334.749C133.008 334.749 132.268 334.566 131.647 334.198C131.029 333.827 130.552 333.306 130.215 332.636C129.881 331.961 129.715 331.172 129.715 330.266C129.715 329.372 129.881 328.585 130.215 327.903C130.552 327.221 131.022 326.689 131.624 326.306C132.23 325.924 132.938 325.732 133.749 325.732C134.241 325.732 134.719 325.814 135.181 325.977C135.643 326.14 136.058 326.395 136.425 326.744C136.792 327.092 137.082 327.545 137.294 328.102C137.506 328.655 137.613 329.327 137.613 330.119V330.721H130.675V329.448H135.948C135.948 329.001 135.857 328.605 135.675 328.261C135.493 327.912 135.238 327.638 134.908 327.437C134.582 327.236 134.2 327.136 133.76 327.136C133.283 327.136 132.866 327.253 132.51 327.488C132.158 327.719 131.885 328.022 131.692 328.397C131.503 328.768 131.408 329.172 131.408 329.607V330.602C131.408 331.185 131.51 331.681 131.715 332.09C131.923 332.499 132.213 332.812 132.584 333.028C132.955 333.24 133.389 333.346 133.885 333.346C134.207 333.346 134.501 333.301 134.766 333.21C135.031 333.115 135.26 332.975 135.453 332.789C135.647 332.604 135.794 332.374 135.897 332.102L137.505 332.391C137.376 332.865 137.145 333.28 136.811 333.636C136.482 333.988 136.067 334.263 135.567 334.46C135.071 334.653 134.505 334.749 133.868 334.749Z" fill="#062540"/>
<path d="M397.132 224.427C397.132 223.322 396.236 222.427 395.132 222.427C394.027 222.427 393.132 223.322 393.132 224.427H397.132ZM74.5796 285.487C75.3606 286.268 76.6269 286.268 77.408 285.487L90.1359 272.759C90.917 271.978 90.917 270.712 90.1359 269.931C89.3549 269.15 88.0885 269.15 87.3075 269.931L75.9938 281.245L64.6801 269.931C63.899 269.15 62.6327 269.15 61.8516 269.931C61.0706 270.712 61.0706 271.978 61.8516 272.759L74.5796 285.487ZM393.132 224.427V230.5H397.132V224.427H393.132ZM371.132 252.5H99.9938V256.5H371.132V252.5ZM73.9938 278.5V284.073H77.9938V278.5H73.9938ZM99.9938 252.5C85.6344 252.5 73.9938 264.14 73.9938 278.5H77.9938C77.9938 266.35 87.8435 256.5 99.9938 256.5V252.5ZM393.132 230.5C393.132 242.65 383.282 252.5 371.132 252.5V256.5C385.491 256.5 397.132 244.859 397.132 230.5H393.132Z" fill="#062540"/>
<path d="M78.1357 224.893C78.1357 223.788 77.2403 222.893 76.1357 222.893C75.0312 222.893 74.1357 223.788 74.1357 224.893H78.1357ZM74.7215 285.487C75.5026 286.268 76.7689 286.268 77.55 285.487L90.2779 272.759C91.0589 271.978 91.0589 270.712 90.2779 269.931C89.4968 269.15 88.2305 269.15 87.4495 269.931L76.1357 281.245L64.822 269.931C64.041 269.15 62.7747 269.15 61.9936 269.931C61.2126 270.712 61.2126 271.978 61.9936 272.759L74.7215 285.487ZM74.1357 224.893V284.073H78.1357V224.893H74.1357Z" fill="#062540"/>
<rect x="428.067" y="370" width="146.272" height="72.8933" rx="6" fill="#E3F5FC" stroke="#062540" stroke-width="4" stroke-linecap="round"/>
<path d="M470.285 400V388.364H474.432C475.338 388.364 476.088 388.528 476.682 388.858C477.277 389.187 477.722 389.638 478.018 390.21C478.313 390.778 478.461 391.419 478.461 392.131C478.461 392.847 478.311 393.491 478.012 394.062C477.717 394.631 477.27 395.081 476.671 395.415C476.076 395.744 475.328 395.909 474.427 395.909H471.574V394.42H474.268C474.84 394.42 475.304 394.322 475.66 394.125C476.016 393.924 476.277 393.652 476.444 393.307C476.61 392.962 476.694 392.57 476.694 392.131C476.694 391.691 476.61 391.301 476.444 390.96C476.277 390.619 476.014 390.352 475.654 390.159C475.298 389.966 474.828 389.869 474.245 389.869H472.04V400H470.285ZM482.668 400.193C482.115 400.193 481.615 400.091 481.168 399.886C480.721 399.678 480.367 399.377 480.106 398.983C479.848 398.589 479.72 398.106 479.72 397.534C479.72 397.042 479.814 396.636 480.004 396.318C480.193 396 480.449 395.748 480.771 395.562C481.093 395.377 481.452 395.237 481.85 395.142C482.248 395.047 482.653 394.975 483.066 394.926C483.589 394.866 484.013 394.816 484.339 394.778C484.665 394.737 484.901 394.67 485.049 394.58C485.197 394.489 485.271 394.341 485.271 394.136V394.097C485.271 393.6 485.13 393.216 484.85 392.943C484.574 392.67 484.161 392.534 483.612 392.534C483.04 392.534 482.589 392.661 482.259 392.915C481.934 393.165 481.708 393.443 481.583 393.75L479.987 393.386C480.176 392.856 480.452 392.428 480.816 392.102C481.184 391.773 481.606 391.534 482.083 391.386C482.56 391.235 483.062 391.159 483.589 391.159C483.937 391.159 484.307 391.201 484.697 391.284C485.091 391.364 485.458 391.511 485.799 391.727C486.144 391.943 486.426 392.252 486.646 392.653C486.865 393.051 486.975 393.568 486.975 394.205V400H485.316V398.807H485.248C485.138 399.027 484.973 399.242 484.754 399.455C484.534 399.667 484.252 399.843 483.907 399.983C483.562 400.123 483.149 400.193 482.668 400.193ZM483.038 398.83C483.507 398.83 483.909 398.737 484.242 398.551C484.579 398.366 484.835 398.123 485.009 397.824C485.187 397.521 485.276 397.197 485.276 396.852V395.727C485.216 395.788 485.098 395.845 484.924 395.898C484.754 395.947 484.559 395.991 484.339 396.028C484.119 396.062 483.905 396.095 483.697 396.125C483.488 396.152 483.314 396.174 483.174 396.193C482.845 396.235 482.543 396.305 482.271 396.403C482.002 396.502 481.786 396.644 481.623 396.83C481.464 397.011 481.384 397.254 481.384 397.557C481.384 397.977 481.54 398.295 481.85 398.511C482.161 398.723 482.557 398.83 483.038 398.83ZM492.738 400.176C491.893 400.176 491.166 399.985 490.556 399.602C489.95 399.216 489.484 398.684 489.159 398.006C488.833 397.328 488.67 396.551 488.67 395.676C488.67 394.79 488.837 394.008 489.17 393.33C489.503 392.648 489.973 392.116 490.579 391.733C491.185 391.35 491.899 391.159 492.721 391.159C493.384 391.159 493.975 391.282 494.494 391.528C495.013 391.771 495.431 392.112 495.749 392.551C496.071 392.991 496.263 393.504 496.323 394.091H494.67C494.579 393.682 494.371 393.33 494.045 393.034C493.723 392.739 493.291 392.591 492.749 392.591C492.276 392.591 491.861 392.716 491.505 392.966C491.153 393.212 490.878 393.564 490.681 394.023C490.484 394.477 490.386 395.015 490.386 395.636C490.386 396.273 490.482 396.822 490.676 397.284C490.869 397.746 491.142 398.104 491.494 398.358C491.85 398.612 492.268 398.739 492.749 398.739C493.071 398.739 493.363 398.68 493.624 398.562C493.89 398.441 494.111 398.269 494.289 398.045C494.471 397.822 494.598 397.553 494.67 397.239H496.323C496.263 397.803 496.079 398.307 495.772 398.75C495.465 399.193 495.054 399.542 494.539 399.795C494.028 400.049 493.427 400.176 492.738 400.176ZM499.527 397.04L499.515 394.966H499.811L503.288 391.273H505.322L501.356 395.477H501.089L499.527 397.04ZM497.964 400V388.364H499.663V400H497.964ZM503.475 400L500.35 395.852L501.521 394.665L505.561 400H503.475ZM509.234 400.193C508.681 400.193 508.181 400.091 507.734 399.886C507.287 399.678 506.933 399.377 506.672 398.983C506.414 398.589 506.285 398.106 506.285 397.534C506.285 397.042 506.38 396.636 506.569 396.318C506.759 396 507.014 395.748 507.336 395.562C507.658 395.377 508.018 395.237 508.416 395.142C508.814 395.047 509.219 394.975 509.632 394.926C510.155 394.866 510.579 394.816 510.905 394.778C511.23 394.737 511.467 394.67 511.615 394.58C511.763 394.489 511.836 394.341 511.836 394.136V394.097C511.836 393.6 511.696 393.216 511.416 392.943C511.139 392.67 510.727 392.534 510.177 392.534C509.605 392.534 509.155 392.661 508.825 392.915C508.499 393.165 508.274 393.443 508.149 393.75L506.552 393.386C506.742 392.856 507.018 392.428 507.382 392.102C507.749 391.773 508.172 391.534 508.649 391.386C509.126 391.235 509.628 391.159 510.155 391.159C510.503 391.159 510.872 391.201 511.263 391.284C511.656 391.364 512.024 391.511 512.365 391.727C512.709 391.943 512.992 392.252 513.211 392.653C513.431 393.051 513.541 393.568 513.541 394.205V400H511.882V398.807H511.814C511.704 399.027 511.539 399.242 511.319 399.455C511.1 399.667 510.817 399.843 510.473 399.983C510.128 400.123 509.715 400.193 509.234 400.193ZM509.603 398.83C510.073 398.83 510.475 398.737 510.808 398.551C511.145 398.366 511.401 398.123 511.575 397.824C511.753 397.521 511.842 397.197 511.842 396.852V395.727C511.781 395.788 511.664 395.845 511.49 395.898C511.319 395.947 511.124 395.991 510.905 396.028C510.685 396.062 510.471 396.095 510.263 396.125C510.054 396.152 509.88 396.174 509.74 396.193C509.41 396.235 509.109 396.305 508.836 396.403C508.567 396.502 508.352 396.644 508.189 396.83C508.03 397.011 507.95 397.254 507.95 397.557C507.95 397.977 508.105 398.295 508.416 398.511C508.727 398.723 509.122 398.83 509.603 398.83ZM519.287 403.455C518.594 403.455 517.997 403.364 517.497 403.182C517.001 403 516.596 402.759 516.281 402.46C515.967 402.161 515.732 401.833 515.577 401.477L517.037 400.875C517.139 401.042 517.275 401.218 517.446 401.403C517.62 401.593 517.855 401.754 518.15 401.886C518.45 402.019 518.834 402.085 519.304 402.085C519.948 402.085 520.48 401.928 520.9 401.614C521.321 401.303 521.531 400.807 521.531 400.125V398.409H521.423C521.321 398.595 521.173 398.801 520.98 399.028C520.791 399.256 520.529 399.453 520.196 399.619C519.863 399.786 519.429 399.869 518.895 399.869C518.205 399.869 517.584 399.708 517.031 399.386C516.482 399.061 516.046 398.581 515.724 397.949C515.406 397.312 515.247 396.53 515.247 395.602C515.247 394.674 515.404 393.879 515.719 393.216C516.037 392.553 516.472 392.045 517.025 391.693C517.578 391.337 518.205 391.159 518.906 391.159C519.448 391.159 519.885 391.25 520.219 391.432C520.552 391.61 520.811 391.818 520.997 392.057C521.186 392.295 521.332 392.506 521.435 392.688H521.56V391.273H523.224V400.193C523.224 400.943 523.05 401.559 522.702 402.04C522.353 402.521 521.882 402.877 521.287 403.108C520.696 403.339 520.029 403.455 519.287 403.455ZM519.27 398.46C519.758 398.46 520.171 398.347 520.508 398.119C520.849 397.888 521.107 397.559 521.281 397.131C521.459 396.699 521.548 396.182 521.548 395.58C521.548 394.992 521.461 394.475 521.287 394.028C521.113 393.581 520.857 393.233 520.52 392.983C520.183 392.729 519.766 392.602 519.27 392.602C518.758 392.602 518.332 392.735 517.991 393C517.65 393.261 517.393 393.617 517.219 394.068C517.048 394.519 516.963 395.023 516.963 395.58C516.963 396.152 517.05 396.653 517.224 397.085C517.399 397.517 517.656 397.854 517.997 398.097C518.342 398.339 518.766 398.46 519.27 398.46ZM529.088 400.176C528.228 400.176 527.488 399.992 526.866 399.625C526.249 399.254 525.772 398.733 525.435 398.062C525.101 397.388 524.935 396.598 524.935 395.693C524.935 394.799 525.101 394.011 525.435 393.33C525.772 392.648 526.241 392.116 526.844 391.733C527.45 391.35 528.158 391.159 528.969 391.159C529.461 391.159 529.938 391.241 530.401 391.403C530.863 391.566 531.277 391.822 531.645 392.17C532.012 392.519 532.302 392.972 532.514 393.528C532.726 394.081 532.832 394.754 532.832 395.545V396.148H525.895V394.875H531.168C531.168 394.428 531.077 394.032 530.895 393.688C530.713 393.339 530.457 393.064 530.128 392.864C529.802 392.663 529.42 392.562 528.98 392.562C528.503 392.562 528.086 392.68 527.73 392.915C527.378 393.146 527.105 393.449 526.912 393.824C526.723 394.195 526.628 394.598 526.628 395.034V396.028C526.628 396.612 526.73 397.108 526.935 397.517C527.143 397.926 527.433 398.239 527.804 398.455C528.175 398.667 528.609 398.773 529.105 398.773C529.427 398.773 529.721 398.727 529.986 398.636C530.251 398.542 530.48 398.402 530.673 398.216C530.866 398.03 531.014 397.801 531.116 397.528L532.724 397.818C532.596 398.292 532.365 398.706 532.031 399.062C531.702 399.415 531.287 399.689 530.787 399.886C530.291 400.08 529.724 400.176 529.088 400.176ZM473.891 415.42C473.831 414.883 473.581 414.466 473.141 414.17C472.702 413.871 472.149 413.722 471.482 413.722C471.005 413.722 470.592 413.797 470.243 413.949C469.895 414.097 469.624 414.301 469.431 414.562C469.242 414.82 469.147 415.114 469.147 415.443C469.147 415.72 469.211 415.958 469.34 416.159C469.473 416.36 469.645 416.528 469.857 416.665C470.073 416.797 470.304 416.909 470.55 417C470.796 417.087 471.033 417.159 471.26 417.216L472.397 417.511C472.768 417.602 473.149 417.725 473.539 417.881C473.929 418.036 474.291 418.241 474.624 418.494C474.957 418.748 475.226 419.062 475.431 419.438C475.639 419.812 475.743 420.261 475.743 420.784C475.743 421.443 475.573 422.028 475.232 422.54C474.895 423.051 474.404 423.455 473.76 423.75C473.12 424.045 472.346 424.193 471.437 424.193C470.565 424.193 469.812 424.055 469.175 423.778C468.539 423.502 468.041 423.11 467.681 422.602C467.321 422.091 467.122 421.485 467.084 420.784H468.846C468.88 421.205 469.016 421.555 469.255 421.835C469.497 422.112 469.806 422.318 470.181 422.455C470.56 422.587 470.975 422.653 471.425 422.653C471.921 422.653 472.363 422.576 472.749 422.42C473.139 422.261 473.446 422.042 473.67 421.761C473.893 421.477 474.005 421.146 474.005 420.767C474.005 420.422 473.906 420.14 473.709 419.92C473.516 419.701 473.253 419.519 472.92 419.375C472.59 419.231 472.217 419.104 471.8 418.994L470.425 418.619C469.493 418.366 468.755 417.992 468.209 417.5C467.668 417.008 467.397 416.356 467.397 415.545C467.397 414.875 467.579 414.29 467.942 413.79C468.306 413.29 468.798 412.902 469.42 412.625C470.041 412.345 470.742 412.205 471.522 412.205C472.31 412.205 473.005 412.343 473.607 412.619C474.213 412.896 474.69 413.277 475.039 413.761C475.387 414.242 475.569 414.795 475.584 415.42H473.891ZM481.29 424.176C480.431 424.176 479.69 423.992 479.069 423.625C478.451 423.254 477.974 422.733 477.637 422.062C477.304 421.388 477.137 420.598 477.137 419.693C477.137 418.799 477.304 418.011 477.637 417.33C477.974 416.648 478.444 416.116 479.046 415.733C479.652 415.35 480.361 415.159 481.171 415.159C481.664 415.159 482.141 415.241 482.603 415.403C483.065 415.566 483.48 415.822 483.847 416.17C484.215 416.519 484.504 416.972 484.717 417.528C484.929 418.081 485.035 418.754 485.035 419.545V420.148H478.097V418.875H483.37C483.37 418.428 483.279 418.032 483.097 417.688C482.915 417.339 482.66 417.064 482.33 416.864C482.004 416.663 481.622 416.562 481.183 416.562C480.705 416.562 480.289 416.68 479.933 416.915C479.58 417.146 479.308 417.449 479.114 417.824C478.925 418.195 478.83 418.598 478.83 419.034V420.028C478.83 420.612 478.933 421.108 479.137 421.517C479.345 421.926 479.635 422.239 480.006 422.455C480.378 422.667 480.811 422.773 481.308 422.773C481.629 422.773 481.923 422.727 482.188 422.636C482.453 422.542 482.683 422.402 482.876 422.216C483.069 422.03 483.217 421.801 483.319 421.528L484.927 421.818C484.798 422.292 484.567 422.706 484.234 423.062C483.904 423.415 483.489 423.689 482.989 423.886C482.493 424.08 481.927 424.176 481.29 424.176ZM488.443 412.364V424H486.744V412.364H488.443ZM494.313 424.176C493.454 424.176 492.713 423.992 492.092 423.625C491.474 423.254 490.997 422.733 490.66 422.062C490.327 421.388 490.16 420.598 490.16 419.693C490.16 418.799 490.327 418.011 490.66 417.33C490.997 416.648 491.467 416.116 492.069 415.733C492.675 415.35 493.384 415.159 494.194 415.159C494.687 415.159 495.164 415.241 495.626 415.403C496.088 415.566 496.503 415.822 496.87 416.17C497.238 416.519 497.527 416.972 497.74 417.528C497.952 418.081 498.058 418.754 498.058 419.545V420.148H491.12V418.875H496.393C496.393 418.428 496.302 418.032 496.12 417.688C495.938 417.339 495.683 417.064 495.353 416.864C495.027 416.663 494.645 416.562 494.206 416.562C493.728 416.562 493.312 416.68 492.956 416.915C492.603 417.146 492.331 417.449 492.137 417.824C491.948 418.195 491.853 418.598 491.853 419.034V420.028C491.853 420.612 491.956 421.108 492.16 421.517C492.368 421.926 492.658 422.239 493.029 422.455C493.401 422.667 493.834 422.773 494.331 422.773C494.652 422.773 494.946 422.727 495.211 422.636C495.476 422.542 495.706 422.402 495.899 422.216C496.092 422.03 496.24 421.801 496.342 421.528L497.95 421.818C497.821 422.292 497.59 422.706 497.257 423.062C496.927 423.415 496.512 423.689 496.012 423.886C495.516 424.08 494.95 424.176 494.313 424.176ZM503.443 424.176C502.598 424.176 501.871 423.985 501.261 423.602C500.655 423.216 500.189 422.684 499.863 422.006C499.538 421.328 499.375 420.551 499.375 419.676C499.375 418.79 499.541 418.008 499.875 417.33C500.208 416.648 500.678 416.116 501.284 415.733C501.89 415.35 502.604 415.159 503.426 415.159C504.089 415.159 504.68 415.282 505.199 415.528C505.717 415.771 506.136 416.112 506.454 416.551C506.776 416.991 506.967 417.504 507.028 418.091H505.375C505.284 417.682 505.075 417.33 504.75 417.034C504.428 416.739 503.996 416.591 503.454 416.591C502.981 416.591 502.566 416.716 502.21 416.966C501.858 417.212 501.583 417.564 501.386 418.023C501.189 418.477 501.091 419.015 501.091 419.636C501.091 420.273 501.187 420.822 501.38 421.284C501.574 421.746 501.846 422.104 502.199 422.358C502.555 422.612 502.973 422.739 503.454 422.739C503.776 422.739 504.068 422.68 504.329 422.562C504.594 422.441 504.816 422.269 504.994 422.045C505.176 421.822 505.303 421.553 505.375 421.239H507.028C506.967 421.803 506.784 422.307 506.477 422.75C506.17 423.193 505.759 423.542 505.244 423.795C504.733 424.049 504.132 424.176 503.443 424.176ZM512.743 415.273V416.636H507.976V415.273H512.743ZM509.254 413.182H510.953V421.438C510.953 421.767 511.002 422.015 511.101 422.182C511.199 422.345 511.326 422.456 511.481 422.517C511.64 422.574 511.813 422.602 511.998 422.602C512.135 422.602 512.254 422.593 512.356 422.574C512.459 422.555 512.538 422.54 512.595 422.528L512.902 423.932C512.803 423.97 512.663 424.008 512.481 424.045C512.3 424.087 512.072 424.11 511.8 424.114C511.353 424.121 510.936 424.042 510.55 423.875C510.163 423.708 509.851 423.451 509.612 423.102C509.373 422.754 509.254 422.316 509.254 421.79V413.182ZM514.446 424V415.273H516.145V424H514.446ZM515.304 413.926C515.008 413.926 514.755 413.828 514.543 413.631C514.334 413.43 514.23 413.191 514.23 412.915C514.23 412.634 514.334 412.396 514.543 412.199C514.755 411.998 515.008 411.898 515.304 411.898C515.599 411.898 515.851 411.998 516.06 412.199C516.272 412.396 516.378 412.634 516.378 412.915C516.378 413.191 516.272 413.43 516.06 413.631C515.851 413.828 515.599 413.926 515.304 413.926ZM521.93 424.176C521.112 424.176 520.398 423.989 519.788 423.614C519.179 423.239 518.705 422.714 518.368 422.04C518.031 421.366 517.862 420.578 517.862 419.676C517.862 418.771 518.031 417.979 518.368 417.301C518.705 416.623 519.179 416.097 519.788 415.722C520.398 415.347 521.112 415.159 521.93 415.159C522.749 415.159 523.463 415.347 524.073 415.722C524.682 416.097 525.156 416.623 525.493 417.301C525.83 417.979 525.999 418.771 525.999 419.676C525.999 420.578 525.83 421.366 525.493 422.04C525.156 422.714 524.682 423.239 524.073 423.614C523.463 423.989 522.749 424.176 521.93 424.176ZM521.936 422.75C522.466 422.75 522.906 422.61 523.254 422.33C523.603 422.049 523.86 421.676 524.027 421.21C524.198 420.744 524.283 420.231 524.283 419.67C524.283 419.114 524.198 418.602 524.027 418.136C523.86 417.667 523.603 417.29 523.254 417.006C522.906 416.722 522.466 416.58 521.936 416.58C521.402 416.58 520.959 416.722 520.607 417.006C520.258 417.29 519.999 417.667 519.828 418.136C519.662 418.602 519.578 419.114 519.578 419.67C519.578 420.231 519.662 420.744 519.828 421.21C519.999 421.676 520.258 422.049 520.607 422.33C520.959 422.61 521.402 422.75 521.936 422.75ZM529.418 418.818V424H527.719V415.273H529.35V416.693H529.458C529.658 416.231 529.973 415.86 530.401 415.58C530.833 415.299 531.376 415.159 532.031 415.159C532.626 415.159 533.147 415.284 533.594 415.534C534.041 415.78 534.388 416.148 534.634 416.636C534.88 417.125 535.003 417.729 535.003 418.449V424H533.304V418.653C533.304 418.021 533.139 417.527 532.81 417.17C532.48 416.811 532.028 416.631 531.452 416.631C531.058 416.631 530.708 416.716 530.401 416.886C530.098 417.057 529.857 417.307 529.679 417.636C529.505 417.962 529.418 418.356 529.418 418.818Z" fill="#062540"/>
<path d="M383.185 327.02C382.081 327.02 381.185 327.915 381.185 329.02C381.185 330.125 382.081 331.02 383.185 331.02V327.02ZM499.788 362.914C500.569 363.695 501.836 363.695 502.617 362.914L515.345 350.186C516.126 349.405 516.126 348.139 515.345 347.358C514.564 346.577 513.297 346.577 512.516 347.358L501.203 358.672L489.889 347.358C489.108 346.577 487.842 346.577 487.06 347.358C486.279 348.139 486.279 349.405 487.06 350.186L499.788 362.914ZM383.185 331.02H477.203V327.02H383.185V331.02ZM499.203 353.02V361.5H503.203V353.02H499.203ZM477.203 331.02C489.353 331.02 499.203 340.87 499.203 353.02H503.203C503.203 338.661 491.562 327.02 477.203 327.02V331.02Z" fill="#062540"/>
<rect x="667.729" y="143.534" width="146.272" height="72.8933" rx="6" fill="#E3F5FC" stroke="#062540" stroke-width="4" stroke-linecap="round"/>
<path d="M735.329 177.681H733.557C733.488 177.303 733.361 176.969 733.176 176.681C732.99 176.394 732.763 176.149 732.494 175.948C732.225 175.748 731.924 175.596 731.591 175.494C731.261 175.392 730.911 175.341 730.54 175.341C729.869 175.341 729.269 175.509 728.738 175.846C728.212 176.183 727.795 176.678 727.488 177.329C727.185 177.981 727.034 178.776 727.034 179.716C727.034 180.662 727.185 181.462 727.488 182.113C727.795 182.765 728.214 183.257 728.744 183.591C729.274 183.924 729.871 184.091 730.534 184.091C730.901 184.091 731.25 184.041 731.579 183.943C731.913 183.841 732.214 183.691 732.483 183.494C732.752 183.297 732.979 183.056 733.165 182.772C733.354 182.484 733.485 182.155 733.557 181.784L735.329 181.789C735.235 182.361 735.051 182.888 734.778 183.369C734.509 183.846 734.163 184.259 733.738 184.608C733.318 184.952 732.837 185.219 732.295 185.409C731.754 185.598 731.163 185.693 730.522 185.693C729.515 185.693 728.617 185.454 727.829 184.977C727.041 184.496 726.42 183.808 725.966 182.914C725.515 182.02 725.29 180.954 725.29 179.716C725.29 178.473 725.517 177.407 725.971 176.517C726.426 175.623 727.047 174.937 727.835 174.46C728.623 173.979 729.519 173.738 730.522 173.738C731.14 173.738 731.716 173.827 732.25 174.005C732.788 174.18 733.271 174.437 733.699 174.778C734.127 175.115 734.481 175.528 734.761 176.017C735.041 176.501 735.231 177.056 735.329 177.681ZM739.658 185.727C739.105 185.727 738.605 185.625 738.158 185.42C737.711 185.212 737.356 184.911 737.095 184.517C736.837 184.123 736.709 183.64 736.709 183.068C736.709 182.575 736.803 182.17 736.993 181.852C737.182 181.534 737.438 181.282 737.76 181.096C738.082 180.911 738.442 180.77 738.839 180.676C739.237 180.581 739.642 180.509 740.055 180.46C740.578 180.399 741.002 180.35 741.328 180.312C741.654 180.27 741.891 180.204 742.038 180.113C742.186 180.022 742.26 179.875 742.26 179.67V179.63C742.26 179.134 742.12 178.75 741.839 178.477C741.563 178.204 741.15 178.068 740.601 178.068C740.029 178.068 739.578 178.195 739.248 178.448C738.923 178.698 738.697 178.977 738.572 179.284L736.976 178.92C737.165 178.39 737.442 177.962 737.805 177.636C738.173 177.306 738.595 177.068 739.072 176.92C739.55 176.769 740.051 176.693 740.578 176.693C740.926 176.693 741.296 176.734 741.686 176.818C742.08 176.897 742.447 177.045 742.788 177.261C743.133 177.477 743.415 177.786 743.635 178.187C743.855 178.585 743.964 179.102 743.964 179.738V185.534H742.305V184.341H742.237C742.127 184.56 741.962 184.776 741.743 184.988C741.523 185.2 741.241 185.376 740.896 185.517C740.551 185.657 740.139 185.727 739.658 185.727ZM740.027 184.363C740.497 184.363 740.898 184.27 741.231 184.085C741.569 183.899 741.824 183.657 741.998 183.358C742.176 183.055 742.266 182.731 742.266 182.386V181.261C742.205 181.322 742.087 181.378 741.913 181.431C741.743 181.481 741.548 181.524 741.328 181.562C741.108 181.596 740.894 181.628 740.686 181.659C740.478 181.685 740.303 181.708 740.163 181.727C739.834 181.769 739.533 181.839 739.26 181.937C738.991 182.036 738.775 182.178 738.612 182.363C738.453 182.545 738.373 182.787 738.373 183.091C738.373 183.511 738.529 183.829 738.839 184.045C739.15 184.257 739.546 184.363 740.027 184.363ZM746.051 185.534V176.806H747.693V178.193H747.784C747.943 177.723 748.224 177.354 748.625 177.085C749.03 176.812 749.489 176.676 750 176.676C750.106 176.676 750.231 176.68 750.375 176.687C750.523 176.695 750.638 176.704 750.722 176.716V178.341C750.653 178.322 750.532 178.301 750.358 178.278C750.184 178.251 750.009 178.238 749.835 178.238C749.434 178.238 749.076 178.323 748.761 178.494C748.451 178.661 748.205 178.894 748.023 179.193C747.841 179.488 747.75 179.825 747.75 180.204V185.534H746.051ZM756.605 176.806V178.17H751.838V176.806H756.605ZM753.117 174.716H754.815V182.971C754.815 183.301 754.865 183.549 754.963 183.716C755.062 183.878 755.189 183.99 755.344 184.051C755.503 184.108 755.675 184.136 755.861 184.136C755.997 184.136 756.117 184.126 756.219 184.108C756.321 184.089 756.401 184.073 756.458 184.062L756.764 185.466C756.666 185.503 756.526 185.541 756.344 185.579C756.162 185.621 755.935 185.644 755.662 185.647C755.215 185.655 754.798 185.575 754.412 185.409C754.026 185.242 753.713 184.984 753.475 184.636C753.236 184.287 753.117 183.85 753.117 183.323V174.716Z" fill="#062540"/>
<rect x="667.42" y="379" width="146.272" height="75" rx="6" fill="#E3F5FC" stroke="#062540" stroke-width="4" stroke-linecap="round"/>
<path d="M711.821 415.148H710.048C709.98 414.769 709.853 414.436 709.667 414.148C709.482 413.86 709.254 413.616 708.985 413.415C708.716 413.214 708.415 413.062 708.082 412.96C707.752 412.858 707.402 412.807 707.031 412.807C706.36 412.807 705.76 412.975 705.23 413.312C704.703 413.65 704.286 414.144 703.98 414.795C703.677 415.447 703.525 416.242 703.525 417.182C703.525 418.129 703.677 418.928 703.98 419.58C704.286 420.231 704.705 420.723 705.235 421.057C705.766 421.39 706.362 421.557 707.025 421.557C707.393 421.557 707.741 421.508 708.071 421.409C708.404 421.307 708.705 421.157 708.974 420.96C709.243 420.763 709.47 420.523 709.656 420.239C709.845 419.951 709.976 419.621 710.048 419.25L711.821 419.256C711.726 419.828 711.542 420.354 711.269 420.835C711 421.312 710.654 421.725 710.23 422.074C709.809 422.419 709.328 422.686 708.786 422.875C708.245 423.064 707.654 423.159 707.014 423.159C706.006 423.159 705.108 422.92 704.321 422.443C703.533 421.962 702.911 421.275 702.457 420.381C702.006 419.487 701.781 418.42 701.781 417.182C701.781 415.939 702.008 414.873 702.463 413.983C702.917 413.089 703.538 412.403 704.326 411.926C705.114 411.445 706.01 411.205 707.014 411.205C707.631 411.205 708.207 411.294 708.741 411.472C709.279 411.646 709.762 411.903 710.19 412.244C710.618 412.581 710.972 412.994 711.252 413.483C711.533 413.968 711.722 414.523 711.821 415.148ZM715.308 417.818V423H713.609V411.364H715.285V415.693H715.393C715.598 415.223 715.91 414.85 716.331 414.574C716.751 414.297 717.3 414.159 717.978 414.159C718.577 414.159 719.1 414.282 719.547 414.528C719.997 414.775 720.346 415.142 720.592 415.631C720.842 416.116 720.967 416.722 720.967 417.449V423H719.268V417.653C719.268 417.013 719.103 416.517 718.774 416.165C718.444 415.809 717.986 415.631 717.399 415.631C716.997 415.631 716.637 415.716 716.319 415.886C716.005 416.057 715.757 416.307 715.575 416.636C715.397 416.962 715.308 417.356 715.308 417.818ZM726.819 423.176C725.96 423.176 725.219 422.992 724.598 422.625C723.98 422.254 723.503 421.733 723.166 421.062C722.833 420.388 722.666 419.598 722.666 418.693C722.666 417.799 722.833 417.011 723.166 416.33C723.503 415.648 723.973 415.116 724.575 414.733C725.181 414.35 725.889 414.159 726.7 414.159C727.193 414.159 727.67 414.241 728.132 414.403C728.594 414.566 729.009 414.822 729.376 415.17C729.744 415.519 730.033 415.972 730.246 416.528C730.458 417.081 730.564 417.754 730.564 418.545V419.148H723.626V417.875H728.899C728.899 417.428 728.808 417.032 728.626 416.688C728.444 416.339 728.189 416.064 727.859 415.864C727.533 415.663 727.151 415.562 726.711 415.562C726.234 415.562 725.818 415.68 725.461 415.915C725.109 416.146 724.836 416.449 724.643 416.824C724.454 417.195 724.359 417.598 724.359 418.034V419.028C724.359 419.612 724.461 420.108 724.666 420.517C724.874 420.926 725.164 421.239 725.535 421.455C725.907 421.667 726.34 421.773 726.836 421.773C727.158 421.773 727.452 421.727 727.717 421.636C727.982 421.542 728.211 421.402 728.405 421.216C728.598 421.03 728.746 420.801 728.848 420.528L730.456 420.818C730.327 421.292 730.096 421.706 729.763 422.062C729.433 422.415 729.018 422.689 728.518 422.886C728.022 423.08 727.456 423.176 726.819 423.176ZM735.949 423.176C735.104 423.176 734.377 422.985 733.767 422.602C733.161 422.216 732.695 421.684 732.369 421.006C732.044 420.328 731.881 419.551 731.881 418.676C731.881 417.79 732.047 417.008 732.381 416.33C732.714 415.648 733.184 415.116 733.79 414.733C734.396 414.35 735.11 414.159 735.932 414.159C736.595 414.159 737.186 414.282 737.704 414.528C738.223 414.771 738.642 415.112 738.96 415.551C739.282 415.991 739.473 416.504 739.534 417.091H737.881C737.79 416.682 737.581 416.33 737.256 416.034C736.934 415.739 736.502 415.591 735.96 415.591C735.487 415.591 735.072 415.716 734.716 415.966C734.364 416.212 734.089 416.564 733.892 417.023C733.695 417.477 733.597 418.015 733.597 418.636C733.597 419.273 733.693 419.822 733.886 420.284C734.079 420.746 734.352 421.104 734.704 421.358C735.061 421.612 735.479 421.739 735.96 421.739C736.282 421.739 736.574 421.68 736.835 421.562C737.1 421.441 737.322 421.269 737.5 421.045C737.682 420.822 737.809 420.553 737.881 420.239H739.534C739.473 420.803 739.29 421.307 738.983 421.75C738.676 422.193 738.265 422.542 737.75 422.795C737.239 423.049 736.638 423.176 735.949 423.176ZM742.737 420.04L742.726 417.966H743.021L746.499 414.273H748.533L744.567 418.477H744.3L742.737 420.04ZM741.175 423V411.364H742.874V423H741.175ZM746.686 423L743.561 418.852L744.732 417.665L748.771 423H746.686ZM764.208 417.182C764.208 418.424 763.98 419.492 763.526 420.386C763.071 421.277 762.448 421.962 761.657 422.443C760.869 422.92 759.973 423.159 758.969 423.159C757.962 423.159 757.062 422.92 756.27 422.443C755.482 421.962 754.861 421.275 754.407 420.381C753.952 419.487 753.725 418.42 753.725 417.182C753.725 415.939 753.952 414.873 754.407 413.983C754.861 413.089 755.482 412.403 756.27 411.926C757.062 411.445 757.962 411.205 758.969 411.205C759.973 411.205 760.869 411.445 761.657 411.926C762.448 412.403 763.071 413.089 763.526 413.983C763.98 414.873 764.208 415.939 764.208 417.182ZM762.469 417.182C762.469 416.235 762.316 415.437 762.009 414.79C761.706 414.138 761.289 413.646 760.759 413.312C760.232 412.975 759.636 412.807 758.969 412.807C758.299 412.807 757.7 412.975 757.174 413.312C756.647 413.646 756.23 414.138 755.924 414.79C755.621 415.437 755.469 416.235 755.469 417.182C755.469 418.129 755.621 418.928 755.924 419.58C756.23 420.227 756.647 420.72 757.174 421.057C757.7 421.39 758.299 421.557 758.969 421.557C759.636 421.557 760.232 421.39 760.759 421.057C761.289 420.72 761.706 420.227 762.009 419.58C762.316 418.928 762.469 418.129 762.469 417.182ZM771.613 419.381V414.273H773.317V423H771.647V421.489H771.556C771.355 421.955 771.033 422.343 770.59 422.653C770.151 422.96 769.603 423.114 768.948 423.114C768.387 423.114 767.891 422.991 767.459 422.744C767.031 422.494 766.694 422.125 766.448 421.636C766.206 421.148 766.084 420.544 766.084 419.824V414.273H767.783V419.619C767.783 420.214 767.948 420.687 768.277 421.04C768.607 421.392 769.035 421.568 769.562 421.568C769.88 421.568 770.196 421.489 770.51 421.33C770.829 421.17 771.092 420.93 771.3 420.608C771.512 420.286 771.616 419.877 771.613 419.381ZM779.498 414.273V415.636H774.731V414.273H779.498ZM776.009 412.182H777.708V420.438C777.708 420.767 777.757 421.015 777.856 421.182C777.954 421.345 778.081 421.456 778.236 421.517C778.396 421.574 778.568 421.602 778.753 421.602C778.89 421.602 779.009 421.593 779.111 421.574C779.214 421.555 779.293 421.54 779.35 421.528L779.657 422.932C779.558 422.97 779.418 423.008 779.236 423.045C779.055 423.087 778.827 423.11 778.555 423.114C778.108 423.121 777.691 423.042 777.305 422.875C776.918 422.708 776.606 422.451 776.367 422.102C776.128 421.754 776.009 421.316 776.009 420.79V412.182Z" fill="#062540"/>
<path d="M582.339 404.447C581.234 404.447 580.339 405.342 580.339 406.447C580.339 407.551 581.234 408.447 582.339 408.447V404.447ZM660.335 417.914C661.116 417.133 661.116 415.867 660.335 415.086L647.607 402.358C646.826 401.577 645.559 401.577 644.778 402.358C643.997 403.139 643.997 404.405 644.778 405.186L656.092 416.5L644.778 427.814C643.997 428.595 643.997 429.861 644.778 430.642C645.559 431.423 646.826 431.423 647.607 430.642L660.335 417.914ZM620.88 411.473H622.88H620.88ZM620.88 411.473H622.88H620.88ZM582.339 408.447H615.853V404.447H582.339V408.447ZM625.906 418.5H658.921V414.5H625.906V418.5ZM618.88 411.473C618.88 415.354 622.026 418.5 625.906 418.5V414.5C624.235 414.5 622.88 413.145 622.88 411.473H618.88ZM615.853 408.447C617.525 408.447 618.88 409.802 618.88 411.473H622.88C622.88 407.593 619.734 404.447 615.853 404.447V408.447Z" fill="#062540"/>
<path d="M77.9938 373.466C77.9938 372.362 77.0983 371.466 75.9938 371.466C74.8892 371.466 73.9938 372.362 73.9938 373.466H77.9938ZM660.335 417.914C661.116 417.133 661.116 415.867 660.335 415.086L647.607 402.358C646.826 401.577 645.559 401.577 644.778 402.358C643.997 403.139 643.997 404.405 644.778 405.186L656.092 416.5L644.778 427.813C643.997 428.595 643.997 429.861 644.778 430.642C645.559 431.423 646.826 431.423 647.607 430.642L660.335 417.914ZM627.528 434.75H629.528H627.528ZM627.528 434.75H629.528H627.528ZM73.9938 373.466V429H77.9938V373.466H73.9938ZM99.9938 455H609.278V451H99.9938V455ZM645.778 418.5H658.92V414.5H645.778V418.5ZM629.528 434.75C629.528 425.775 636.804 418.5 645.778 418.5V414.5C634.594 414.5 625.528 423.566 625.528 434.75H629.528ZM609.278 455C620.462 455 629.528 445.934 629.528 434.75H625.528C625.528 443.724 618.253 451 609.278 451V455ZM73.9938 429C73.9938 443.359 85.6344 455 99.9938 455V451C87.8435 451 77.9938 441.15 77.9938 429H73.9938Z" fill="#062540"/>
<path d="M304.05 373.466C304.05 372.362 303.154 371.466 302.05 371.466C300.945 371.466 300.05 372.362 300.05 373.466H304.05ZM660.335 417.914C661.116 417.133 661.116 415.867 660.335 415.086L647.607 402.358C646.826 401.577 645.559 401.577 644.778 402.358C643.997 403.139 643.997 404.405 644.778 405.186L656.092 416.5L644.778 427.813C643.997 428.595 643.997 429.861 644.778 430.642C645.559 431.423 646.826 431.423 647.607 430.642L660.335 417.914ZM627.528 434.75H629.528H627.528ZM627.528 434.75H629.528H627.528ZM300.05 373.466V429H304.05V373.466H300.05ZM326.05 455H609.278V451H326.05V455ZM645.778 418.5H658.92V414.5H645.778V418.5ZM629.528 434.75C629.528 425.775 636.803 418.5 645.778 418.5V414.5C634.594 414.5 625.528 423.566 625.528 434.75H629.528ZM609.278 455C620.462 455 629.528 445.934 629.528 434.75H625.528C625.528 443.724 618.253 451 609.278 451V455ZM300.05 429C300.05 443.359 311.69 455 326.05 455V451C313.899 451 304.05 441.15 304.05 429H300.05Z" fill="#062540"/>
<path d="M742.556 224.427C742.556 223.322 741.661 222.427 740.556 222.427C739.452 222.427 738.556 223.322 738.556 224.427H742.556ZM739.142 371.914C739.923 372.695 741.19 372.695 741.971 371.914L754.699 359.186C755.48 358.405 755.48 357.139 754.699 356.358C753.917 355.577 752.651 355.577 751.87 356.358L740.556 367.671L729.243 356.358C728.462 355.577 727.195 355.577 726.414 356.358C725.633 357.139 725.633 358.405 726.414 359.186L739.142 371.914ZM738.556 224.427V370.5H742.556V224.427H738.556Z" fill="#062540"/>
<rect x="321.688" y="2" width="146.272" height="72.8933" rx="6" fill="#E3F5FC" stroke="#062540" stroke-width="4" stroke-linecap="round"/>
<path d="M355.069 44V32.3636H356.825V37.4205H362.626V32.3636H364.388V44H362.626V38.9261H356.825V44H355.069ZM370.308 44.1761C369.49 44.1761 368.776 43.9886 368.166 43.6136C367.556 43.2386 367.083 42.714 366.746 42.0398C366.409 41.3655 366.24 40.5777 366.24 39.6761C366.24 38.7708 366.409 37.9792 366.746 37.3011C367.083 36.6231 367.556 36.0966 368.166 35.7216C368.776 35.3466 369.49 35.1591 370.308 35.1591C371.126 35.1591 371.84 35.3466 372.45 35.7216C373.06 36.0966 373.534 36.6231 373.871 37.3011C374.208 37.9792 374.376 38.7708 374.376 39.6761C374.376 40.5777 374.208 41.3655 373.871 42.0398C373.534 42.714 373.06 43.2386 372.45 43.6136C371.84 43.9886 371.126 44.1761 370.308 44.1761ZM370.314 42.75C370.844 42.75 371.284 42.6098 371.632 42.3295C371.981 42.0492 372.238 41.6761 372.405 41.2102C372.575 40.7443 372.661 40.2311 372.661 39.6705C372.661 39.1136 372.575 38.6023 372.405 38.1364C372.238 37.6667 371.981 37.2898 371.632 37.0057C371.284 36.7216 370.844 36.5795 370.314 36.5795C369.78 36.5795 369.337 36.7216 368.984 37.0057C368.636 37.2898 368.376 37.6667 368.206 38.1364C368.039 38.6023 367.956 39.1136 367.956 39.6705C367.956 40.2311 368.039 40.7443 368.206 41.2102C368.376 41.6761 368.636 42.0492 368.984 42.3295C369.337 42.6098 369.78 42.75 370.314 42.75ZM376.097 44V35.2727H377.727V36.6932H377.835C378.017 36.2121 378.315 35.8371 378.727 35.5682C379.14 35.2955 379.635 35.1591 380.21 35.1591C380.794 35.1591 381.282 35.2955 381.676 35.5682C382.074 35.8409 382.368 36.2159 382.557 36.6932H382.648C382.856 36.2273 383.188 35.8561 383.642 35.5795C384.097 35.2992 384.638 35.1591 385.267 35.1591C386.059 35.1591 386.705 35.4072 387.205 35.9034C387.708 36.3996 387.96 37.1477 387.96 38.1477V44H386.262V38.3068C386.262 37.7159 386.101 37.2879 385.779 37.0227C385.457 36.7576 385.072 36.625 384.625 36.625C384.072 36.625 383.642 36.7955 383.335 37.1364C383.029 37.4735 382.875 37.9072 382.875 38.4375V44H381.182V38.1989C381.182 37.7254 381.034 37.3447 380.739 37.0568C380.443 36.7689 380.059 36.625 379.585 36.625C379.263 36.625 378.966 36.7102 378.693 36.8807C378.424 37.0473 378.207 37.2803 378.04 37.5795C377.877 37.8788 377.796 38.2254 377.796 38.6193V44H376.097ZM393.823 44.1761C392.963 44.1761 392.222 43.9924 391.601 43.625C390.984 43.2538 390.506 42.733 390.169 42.0625C389.836 41.3883 389.669 40.5985 389.669 39.6932C389.669 38.7992 389.836 38.0114 390.169 37.3295C390.506 36.6477 390.976 36.1155 391.578 35.733C392.184 35.3504 392.893 35.1591 393.703 35.1591C394.196 35.1591 394.673 35.2405 395.135 35.4034C395.597 35.5663 396.012 35.822 396.38 36.1705C396.747 36.5189 397.037 36.9716 397.249 37.5284C397.461 38.0814 397.567 38.7538 397.567 39.5455V40.1477H390.63V38.875H395.902C395.902 38.428 395.811 38.0322 395.63 37.6875C395.448 37.339 395.192 37.0644 394.863 36.8636C394.537 36.6629 394.154 36.5625 393.715 36.5625C393.238 36.5625 392.821 36.6799 392.465 36.9148C392.113 37.1458 391.84 37.4489 391.647 37.8239C391.457 38.1951 391.363 38.5985 391.363 39.0341V40.0284C391.363 40.6117 391.465 41.108 391.669 41.517C391.878 41.9261 392.167 42.2386 392.539 42.4545C392.91 42.6667 393.344 42.7727 393.84 42.7727C394.162 42.7727 394.455 42.7273 394.72 42.6364C394.986 42.5417 395.215 42.4015 395.408 42.2159C395.601 42.0303 395.749 41.8011 395.851 41.5284L397.459 41.8182C397.33 42.2917 397.099 42.7064 396.766 43.0625C396.436 43.4148 396.022 43.6894 395.522 43.8864C395.025 44.0795 394.459 44.1761 393.823 44.1761ZM399.276 47.2727V35.2727H400.935V36.6875H401.077C401.176 36.5057 401.318 36.2955 401.503 36.0568C401.689 35.8182 401.946 35.6098 402.276 35.4318C402.606 35.25 403.041 35.1591 403.583 35.1591C404.287 35.1591 404.916 35.3371 405.469 35.6932C406.022 36.0492 406.456 36.5625 406.77 37.233C407.089 37.9034 407.248 38.7102 407.248 39.6534C407.248 40.5966 407.09 41.4053 406.776 42.0795C406.462 42.75 406.03 43.267 405.481 43.6307C404.931 43.9905 404.304 44.1705 403.6 44.1705C403.07 44.1705 402.636 44.0814 402.299 43.9034C401.965 43.7254 401.704 43.517 401.515 43.2784C401.325 43.0398 401.179 42.8277 401.077 42.642H400.975V47.2727H399.276ZM400.941 39.6364C400.941 40.25 401.03 40.7879 401.208 41.25C401.386 41.7121 401.643 42.0739 401.981 42.3352C402.318 42.5928 402.731 42.7216 403.219 42.7216C403.727 42.7216 404.151 42.5871 404.492 42.3182C404.833 42.0455 405.09 41.6761 405.265 41.2102C405.443 40.7443 405.532 40.2197 405.532 39.6364C405.532 39.0606 405.445 38.5436 405.27 38.0852C405.1 37.6269 404.842 37.2652 404.498 37C404.157 36.7348 403.731 36.6023 403.219 36.6023C402.727 36.6023 402.31 36.7292 401.969 36.983C401.632 37.2367 401.376 37.5909 401.202 38.0455C401.028 38.5 400.941 39.0303 400.941 39.6364ZM411.515 44.1932C410.962 44.1932 410.462 44.0909 410.015 43.8864C409.568 43.678 409.214 43.3769 408.952 42.983C408.695 42.589 408.566 42.1061 408.566 41.5341C408.566 41.0417 408.661 40.6364 408.85 40.3182C409.039 40 409.295 39.7481 409.617 39.5625C409.939 39.3769 410.299 39.2367 410.697 39.142C411.094 39.0473 411.5 38.9754 411.913 38.9261C412.435 38.8655 412.859 38.8163 413.185 38.7784C413.511 38.7367 413.748 38.6705 413.895 38.5795C414.043 38.4886 414.117 38.3409 414.117 38.1364V38.0966C414.117 37.6004 413.977 37.2159 413.697 36.9432C413.42 36.6705 413.007 36.5341 412.458 36.5341C411.886 36.5341 411.435 36.661 411.106 36.9148C410.78 37.1648 410.555 37.4432 410.43 37.75L408.833 37.3864C409.022 36.8561 409.299 36.428 409.663 36.1023C410.03 35.7727 410.452 35.5341 410.93 35.3864C411.407 35.2348 411.909 35.1591 412.435 35.1591C412.784 35.1591 413.153 35.2008 413.543 35.2841C413.937 35.3636 414.305 35.5114 414.645 35.7273C414.99 35.9432 415.272 36.2519 415.492 36.6534C415.712 37.0511 415.822 37.5682 415.822 38.2045V44H414.163V42.8068H414.094C413.984 43.0265 413.82 43.2424 413.6 43.4545C413.38 43.6667 413.098 43.8428 412.753 43.983C412.409 44.1231 411.996 44.1932 411.515 44.1932ZM411.884 42.8295C412.354 42.8295 412.755 42.7367 413.089 42.5511C413.426 42.3655 413.681 42.1231 413.856 41.8239C414.034 41.5208 414.123 41.197 414.123 40.8523V39.7273C414.062 39.7879 413.945 39.8447 413.77 39.8977C413.6 39.947 413.405 39.9905 413.185 40.0284C412.966 40.0625 412.752 40.0947 412.543 40.125C412.335 40.1515 412.161 40.1742 412.02 40.1932C411.691 40.2348 411.39 40.3049 411.117 40.4034C410.848 40.5019 410.632 40.6439 410.469 40.8295C410.31 41.0114 410.231 41.2538 410.231 41.5568C410.231 41.9773 410.386 42.2955 410.697 42.5114C411.007 42.7235 411.403 42.8295 411.884 42.8295ZM421.567 47.4545C420.874 47.4545 420.278 47.3636 419.778 47.1818C419.281 47 418.876 46.7595 418.562 46.4602C418.247 46.161 418.013 45.8333 417.857 45.4773L419.317 44.875C419.42 45.0417 419.556 45.2178 419.727 45.4034C419.901 45.5928 420.136 45.7538 420.431 45.8864C420.73 46.0189 421.115 46.0852 421.585 46.0852C422.228 46.0852 422.761 45.928 423.181 45.6136C423.602 45.303 423.812 44.8068 423.812 44.125V42.4091H423.704C423.602 42.5947 423.454 42.8011 423.261 43.0284C423.071 43.2557 422.81 43.4527 422.477 43.6193C422.143 43.786 421.71 43.8693 421.175 43.8693C420.486 43.8693 419.865 43.7083 419.312 43.3864C418.763 43.0606 418.327 42.5814 418.005 41.9489C417.687 41.3125 417.528 40.5303 417.528 39.6023C417.528 38.6742 417.685 37.8788 417.999 37.2159C418.317 36.553 418.753 36.0455 419.306 35.6932C419.859 35.3371 420.486 35.1591 421.187 35.1591C421.728 35.1591 422.166 35.25 422.499 35.4318C422.833 35.6098 423.092 35.8182 423.278 36.0568C423.467 36.2955 423.613 36.5057 423.715 36.6875H423.84V35.2727H425.505V44.1932C425.505 44.9432 425.331 45.5587 424.982 46.0398C424.634 46.5208 424.162 46.8769 423.567 47.108C422.977 47.339 422.31 47.4545 421.567 47.4545ZM421.55 42.4602C422.039 42.4602 422.452 42.3466 422.789 42.1193C423.13 41.8883 423.388 41.5587 423.562 41.1307C423.74 40.6989 423.829 40.1818 423.829 39.5795C423.829 38.9924 423.742 38.4754 423.567 38.0284C423.393 37.5814 423.138 37.233 422.8 36.983C422.463 36.7292 422.047 36.6023 421.55 36.6023C421.039 36.6023 420.613 36.7348 420.272 37C419.931 37.2614 419.674 37.6174 419.499 38.0682C419.329 38.5189 419.244 39.0227 419.244 39.5795C419.244 40.1515 419.331 40.6534 419.505 41.0852C419.679 41.517 419.937 41.8542 420.278 42.0966C420.622 42.339 421.047 42.4602 421.55 42.4602ZM431.369 44.1761C430.509 44.1761 429.768 43.9924 429.147 43.625C428.53 43.2538 428.052 42.733 427.715 42.0625C427.382 41.3883 427.215 40.5985 427.215 39.6932C427.215 38.7992 427.382 38.0114 427.715 37.3295C428.052 36.6477 428.522 36.1155 429.124 35.733C429.73 35.3504 430.439 35.1591 431.249 35.1591C431.742 35.1591 432.219 35.2405 432.681 35.4034C433.143 35.5663 433.558 35.822 433.926 36.1705C434.293 36.5189 434.583 36.9716 434.795 37.5284C435.007 38.0814 435.113 38.7538 435.113 39.5455V40.1477H428.176V38.875H433.448C433.448 38.428 433.357 38.0322 433.176 37.6875C432.994 37.339 432.738 37.0644 432.409 36.8636C432.083 36.6629 431.7 36.5625 431.261 36.5625C430.784 36.5625 430.367 36.6799 430.011 36.9148C429.659 37.1458 429.386 37.4489 429.193 37.8239C429.003 38.1951 428.909 38.5985 428.909 39.0341V40.0284C428.909 40.6117 429.011 41.108 429.215 41.517C429.424 41.9261 429.713 42.2386 430.085 42.4545C430.456 42.6667 430.89 42.7727 431.386 42.7727C431.708 42.7727 432.001 42.7273 432.266 42.6364C432.532 42.5417 432.761 42.4015 432.954 42.2159C433.147 42.0303 433.295 41.8011 433.397 41.5284L435.005 41.8182C434.876 42.2917 434.645 42.7064 434.312 43.0625C433.982 43.4148 433.568 43.6894 433.068 43.8864C432.571 44.0795 432.005 44.1761 431.369 44.1761Z" fill="#062540"/>
<path d="M396.823 82.8931C396.823 81.7885 395.928 80.8931 394.823 80.8931C393.719 80.8931 392.823 81.7885 392.823 82.8931H396.823ZM393.409 136.448C394.19 137.229 395.457 137.229 396.238 136.448L408.966 123.72C409.747 122.939 409.747 121.672 408.966 120.891C408.185 120.11 406.918 120.11 406.137 120.891L394.823 132.205L383.51 120.891C382.729 120.11 381.462 120.11 380.681 120.891C379.9 121.672 379.9 122.939 380.681 123.72L393.409 136.448ZM392.823 82.8931V135.033H396.823V82.8931H392.823Z" fill="#062540"/>
<path d="M396.823 82.8931C396.823 81.7885 395.928 80.8931 394.823 80.8931C393.719 80.8931 392.823 81.7885 392.823 82.8931H396.823ZM74.7215 136.914C75.5026 137.695 76.7689 137.695 77.55 136.914L90.2779 124.186C91.0589 123.405 91.0589 122.139 90.2779 121.358C89.4968 120.577 88.2305 120.577 87.4495 121.358L76.1357 132.671L64.822 121.358C64.041 120.577 62.7747 120.577 61.9936 121.358C61.2126 122.139 61.2126 123.405 61.9936 124.186L74.7215 136.914ZM392.823 82.8931V85.4464H396.823V82.8931H392.823ZM370.823 107.446H100.136V111.446H370.823V107.446ZM74.1357 133.446V135.5H78.1357V133.446H74.1357ZM100.136 107.446C85.7763 107.446 74.1357 119.087 74.1357 133.446H78.1357C78.1357 121.296 87.9855 111.446 100.136 111.446V107.446ZM392.823 85.4464C392.823 97.5967 382.974 107.446 370.823 107.446V111.446C385.183 111.446 396.823 99.8058 396.823 85.4464H392.823Z" fill="#062540"/>
<path d="M396.823 82.8931C396.823 81.7885 395.928 80.8931 394.823 80.8931C393.719 80.8931 392.823 81.7885 392.823 82.8931H396.823ZM739.45 136.448C740.231 137.229 741.498 137.229 742.279 136.448L755.007 123.72C755.788 122.939 755.788 121.672 755.007 120.891C754.225 120.11 752.959 120.11 752.178 120.891L740.864 132.205L729.551 120.891C728.77 120.11 727.503 120.11 726.722 120.891C725.941 121.672 725.941 122.939 726.722 123.72L739.45 136.448ZM392.823 82.8931V85.2133H396.823V82.8931H392.823ZM418.823 111.213H716.864V107.213H418.823V111.213ZM738.864 133.213V135.033H742.864V133.213H738.864ZM716.864 111.213C729.015 111.213 738.864 121.063 738.864 133.213H742.864C742.864 118.854 731.224 107.213 716.864 107.213V111.213ZM392.823 85.2133C392.823 99.5727 404.464 111.213 418.823 111.213V107.213C406.673 107.213 396.823 97.3635 396.823 85.2133H392.823Z" fill="#062540"/>
</svg>
